<?xml version="1.0" encoding="utf-8"?>
<!-- Generator: Adobe Illustrator 16.0.0, SVG Export Plug-In . SVG Version: 6.00 Build 0)  -->
<!DOCTYPE svg PUBLIC "-//W3C//DTD SVG 1.1//EN" "http://www.w3.org/Graphics/SVG/1.1/DTD/svg11.dtd">
<svg version="1.1" id="Layer_1" xmlns="http://www.w3.org/2000/svg" xmlns:xlink="http://www.w3.org/1999/xlink" x="0px" y="0px"
	 width="70px" height="97px" viewBox="0 0 70 97" >
	 
<g>
	<g>
		<g>
			<path fill="#C2986B" d="M65.204,84.225c-4.015,0.348-7.34-0.85-7.385-1.083c-0.044-0.231-0.468,4.256,7.247,4.294"/>
			<path fill="#C2986B" d="M65.204,86.961c-4.127,0.34-7.546-0.828-7.592-1.054c-0.047-0.226-0.481,4.142,7.45,4.179"/>
			<path fill="#C2986B" d="M65.111,89.438c-4.026,0.322-7.363-0.789-7.408-1.004c-0.045-0.217-0.468,3.943,7.272,3.979"/>
		</g>
		<path fill="#764E2B" d="M63.255,93.036c-0.283,0-0.56-0.061-0.829-0.15V40.702h-0.079c-0.301-2.324-1.719-4.09-3.449-4.111
			l-10.402-0.128v-7.128h15.32v0.038c2.578,0.191,4.369,1.713,4.369,5.177l0.293,50.736C68.479,90.086,66.139,93.036,63.255,93.036z
			"/>
	</g>
	<g>
		<g>
			<path fill="#C2986B" d="M50.625,80.637c-4.014,0.348-7.34-0.851-7.385-1.083c-0.044-0.232-0.467,4.255,7.248,4.294"/>
			<path fill="#C2986B" d="M50.625,83.374c-4.126,0.34-7.545-0.828-7.592-1.055c-0.045-0.225-0.48,4.143,7.452,4.18"/>
			<path fill="#C2986B" d="M50.533,85.85c-4.025,0.322-7.363-0.789-7.408-1.006c-0.045-0.215-0.469,3.944,7.271,3.98"/>
		</g>
		<path fill="#764E2B" d="M47.847,59.979c0.272-0.043,0.547-0.082,0.829-0.082c2.885,0,5.224,2.277,5.224,5.086v19.378
			c0,2.809-2.339,5.087-5.224,5.087c-0.284,0-0.558-0.039-0.829-0.082V59.979z"/>
		<rect x="47.333" y="71.436" fill="#14354F" width="7.081" height="10.79"/>
	</g>
	<g>
		<g>
			<path fill="#C2986B" d="M19.429,80.108c4.014,0.348,7.34-0.851,7.385-1.083c0.044-0.232,0.467,4.255-7.249,4.294"/>
			<path fill="#C2986B" d="M19.429,82.844c4.126,0.34,7.545-0.828,7.592-1.055c0.045-0.225,0.48,4.143-7.452,4.18"/>
			<path fill="#C2986B" d="M19.521,85.321c4.026,0.322,7.363-0.789,7.408-1.006c0.045-0.215,0.469,3.944-7.271,3.98"/>
		</g>
		<path fill="#764E2B" d="M22.206,59.45c-0.272-0.043-0.545-0.082-0.829-0.082c-2.885,0-5.224,2.277-5.224,5.086v19.378
			c0,2.809,2.338,5.087,5.224,5.087c0.284,0,0.558-0.039,0.829-0.082V59.45z"/>
		<rect x="15.639" y="70.907" fill="#14354F" width="7.081" height="10.79"/>
	</g>
	<g>
		<g>
			<path fill="#C2986B" d="M6.877,83.586c4.014,0.348,7.34-0.851,7.385-1.083c0.043-0.233,0.468,4.255-7.249,4.294"/>
			<path fill="#C2986B" d="M6.877,86.323c4.126,0.339,7.545-0.828,7.592-1.055c0.046-0.226,0.48,4.141-7.452,4.18"/>
			<path fill="#C2986B" d="M6.969,88.799c4.026,0.322,7.363-0.789,7.408-1.005s0.469,3.943-7.271,3.979"/>
		</g>
		<path fill="#764E2B" d="M8.825,92.397c0.282,0,0.559-0.062,0.829-0.152V40.062h0.078c0.3-2.324,1.72-4.09,3.45-4.111l10.403-0.128
			v-7.129H8.266v0.039c-2.581,0.191-4.372,1.713-4.372,5.177L3.602,84.645C3.602,89.448,5.94,92.397,8.825,92.397z"/>
	</g>
	<path fill="#8B603E" d="M61.615,62.822c0,6.421-5.923,11.627-13.23,11.627H23.766c-7.307,0-13.229-5.206-13.229-11.627V15.994
		c0-6.421,5.922-11.626,13.229-11.626h24.62c7.307,0,13.229,5.206,13.229,11.626L61.615,62.822L61.615,62.822z"/>
	<path fill="#185229" d="M10.516,28.953v-0.966h-1.57v0.04c-3.4,0.197-5.762,1.765-5.762,5.336L2.942,79.545h7.641l0.056-11.371
		c1.949,4.177,6.635,7.121,12.109,7.121L30.07,75.4V50.672L10.516,28.953z"/>
	<path fill="#185229" d="M60.904,28.953v-0.966h1.57v0.04c3.4,0.197,5.762,1.765,5.762,5.336l0.242,46.183h-7.641l-0.056-11.371
		c-1.949,4.177-6.635,7.121-12.11,7.121L41.35,75.4V50.672L60.904,28.953z"/>
	<g>
		<path fill="#D2D3D3" d="M57.565,46.021c0,5.441-2.522,5.353-9.742,5.353H21.737c-5.53,0-6.825-2.055-7.047-6.022l-0.101-26.356
			c0-5.439,5.852-9.85,13.069-9.85h16.838c7.218,0,13.069,4.411,13.069,9.85V46.021z"/>
		<g>
			<path fill="#A7A8AC" d="M44.55,25.869c2.159-2.099,5.457-2.292,7.365-0.431l5.649,5.509v12.493
				c-1.483,0.208-2.971-0.169-4.03-1.203l-9.434-9.199C42.191,31.178,42.391,27.968,44.55,25.869z"/>
			<g>
				<ellipse fill="#C2986B" cx="48.714" cy="30.003" rx="4.695" ry="4.683"/>
				<ellipse fill="#5A5A5D" cx="48.714" cy="30.003" rx="3.533" ry="3.665"/>
			</g>
		</g>
		<g>
			<path fill="#A7A8AC" d="M27.603,25.869c-2.158-2.099-5.455-2.292-7.364-0.431l-5.65,5.509v12.493
				c1.483,0.208,2.971-0.169,4.032-1.203l9.433-9.199C29.963,31.178,29.761,27.968,27.603,25.869z"/>
			<g>
				<ellipse fill="#C2986B" cx="23.44" cy="30.003" rx="4.695" ry="4.683"/>
				<ellipse fill="#5A5A5D" cx="23.44" cy="30.003" rx="3.533" ry="3.665"/>
			</g>
		</g>
		<path fill="#5A5A5D" d="M38.652,38.738c0,1.101-0.84,1.994-1.871,1.994h-1.813c-1.034,0-1.872-0.893-1.872-1.994l0,0
			c0-1.1,0.838-1.993,1.872-1.993h1.813C37.812,36.745,38.652,37.638,38.652,38.738L38.652,38.738z"/>
		<path fill="#5A5A5D" d="M27.531,46.397c-0.044,0.181-0.074,0.371-0.074,0.572c0,1.012,0.605,1.832,1.352,1.832h14.537
			c0.746,0,1.351-0.82,1.351-1.832c0-0.201-0.028-0.391-0.073-0.572H27.531z"/>
	</g>
	<path fill="#847D70" d="M64.177,53.845c0.025-5.068-3.281-16.801-8.606-24.85v15.913c0,4.796-1.951,5.089-7.401,5.105v-2.271
		c0-3.868-3.303-7.005-7.377-7.005h-9.505c-4.074,0-7.377,3.137-7.377,7.005l0.007,2.272h-0.761c-5.003,0-6.175-1.96-6.375-5.745
		l-0.059-16.177c-5.687,8.049-9.25,20.492-9.224,25.753c0,0,1.945-0.806,4.835-3.38c-1.296,5.888-1.672,11.563-1.187,14.641
		c0,0,2.691-1.465,6.006-5.955c0.138,5.152,0.891,9.831,1.879,12.443c0,0,2.153-1.648,4.379-6.061
		c0.743,4.424,1.877,8.303,3.011,10.549c0,0,1.636-1.5,3.232-5.235c0.689,3.155,1.556,5.841,2.425,7.565
		c0,0,2.016-1.844,3.758-6.539c1.743,4.695,3.759,6.539,3.759,6.539c0.869-1.725,1.735-4.41,2.425-7.564
		c1.596,3.734,3.231,5.234,3.231,5.234c1.136-2.246,2.269-6.125,3.012-10.549c2.227,4.412,4.38,6.061,4.38,6.061
		c0.987-2.612,1.74-7.291,1.878-12.443c3.315,4.49,6.007,5.955,6.007,5.955c0.484-3.078,0.109-8.754-1.188-14.641
		C62.232,53.04,64.177,53.845,64.177,53.845z M39.035,50.014c-0.004,0.084-0.008,0.167-0.011,0.254l-0.804-0.254h-4.765
		l-0.804,0.254c-0.003-0.087-0.006-0.17-0.01-0.254h-5.565l-0.002-0.549c0-3.036,2.436-5.497,5.44-5.497h7.009
		c3.004,0,5.439,2.461,5.439,5.497v0.549H39.035z"/>
	<g>
		<path fill="#8B603E" d="M39.169,8.59c-0.321-3.029,0.94-5.522,1.18-5.553c0.238-0.03-4.366-0.402-4.475,5.413"/>
		<path fill="#8B603E" d="M36.36,8.558c-0.312-3.113,0.919-5.677,1.15-5.71c0.232-0.03-4.249-0.409-4.357,5.568"/>
		<path fill="#8B603E" d="M33.818,8.46c-0.293-3.037,0.876-5.54,1.099-5.571c0.221-0.031-4.045-0.399-4.151,5.434"/>
	</g>
</g>
</svg>
