<?xml version="1.0" encoding="utf-8"?>
<!-- Generator: Adobe Illustrator 16.0.0, SVG Export Plug-In . SVG Version: 6.00 Build 0)  -->
<!DOCTYPE svg PUBLIC "-//W3C//DTD SVG 1.1//EN" "http://www.w3.org/Graphics/SVG/1.1/DTD/svg11.dtd">
<svg version="1.1" id="Layer_1" xmlns="http://www.w3.org/2000/svg" xmlns:xlink="http://www.w3.org/1999/xlink" x="0px" y="0px"
	 width="128px" height="128px" viewBox="0 0 128 128" xml:space="preserve">
<g>
	<g>
		<g>
			<path fill="#875E3B" d="M62.948,122.037c0,1.252-1.016,2.268-2.269,2.268h-0.433c-1.252,0-2.268-1.016-2.268-2.268v-5.996
				c0-1.252,1.016-2.269,2.268-2.269h0.433c1.252,0,2.269,1.017,2.269,2.269V122.037z"/>
			<path fill="#7C5732" d="M58.78,113.137c0,1.252-1.016,2.268-2.268,2.268h-6.233c-1.252,0-2.268-1.016-2.268-2.268v-0.873
				c0-1.253,1.015-2.268,2.268-2.268h6.233c1.252,0,2.268,1.015,2.268,2.268V113.137z"/>
			<path fill="#7C5732" d="M58.78,113.192c0,1.222-0.861,2.212-1.924,2.212h-0.801c-1.063,0-1.924-0.99-1.924-2.212v-43.88
				c0-1.223,0.861-2.213,1.924-2.213h0.801c1.063,0,1.924,0.99,1.924,2.213V113.192z"/>
			<path fill="#875E3B" d="M62.948,115.32c0,1.223-0.861,2.214-1.924,2.214h-1.122c-1.063,0-1.924-0.991-1.924-2.214V67.435
				c0-1.224,0.861-2.213,1.924-2.213h1.122c1.063,0,1.924,0.989,1.924,2.213V115.32z"/>
			<path fill="#875E3B" d="M64.63,113.192c0,1.222,0.862,2.212,1.923,2.212h0.802c1.062,0,1.923-0.99,1.923-2.212v-43.88
				c0-1.223-0.861-2.213-1.923-2.213h-0.802c-1.062,0-1.923,0.99-1.923,2.213V113.192z"/>
			<path fill="#7C5732" d="M60.462,115.32c0,1.223,0.861,2.214,1.924,2.214h1.122c1.062,0,1.923-0.991,1.923-2.214V67.435
				c0-1.224-0.861-2.213-1.923-2.213h-1.122c-1.063,0-1.924,0.989-1.924,2.213V115.32z"/>
			<path fill="#7C5732" d="M74.657,115.512c0,1.199-0.972,2.172-2.171,2.172h-9.852c-1.199,0-2.172-0.973-2.172-2.172l0,0
				c0-1.197,0.973-2.172,2.172-2.172h9.852C73.686,113.34,74.657,114.314,74.657,115.512L74.657,115.512z"/>
			<g>
				<path fill="#7C5732" d="M62.042,95.172c0,1.252-1.015,2.269-2.268,2.269h-2.268c-1.253,0-2.269-1.017-2.269-2.269V82.921
					c0-1.251,1.016-2.268,2.269-2.268h2.268c1.252,0,2.268,1.017,2.268,2.268V95.172z"/>
				<path fill="#684127" d="M61.616,94.152c0,1.045-0.847,1.891-1.891,1.891h-1.891c-1.044,0-1.891-0.846-1.891-1.891V83.94
					c0-1.044,0.847-1.89,1.891-1.89h1.891c1.043,0,1.891,0.846,1.891,1.89V94.152z"/>
				<g>
					<path fill="#269747" d="M61.616,94.152v-1.145h-9.725V80.354v-0.883c0-0.608-0.602-1.103-1.343-1.103h-0.975h-5.22
						c-0.741,0-1.342,0.494-1.342,1.103v0.883c0,0.609,0.601,1.103,1.342,1.103h3.878V94.11v0.517c0,0.607,0.601,1.102,1.342,1.102
						h0.975h10.221C61.279,95.391,61.616,94.811,61.616,94.152z"/>
					<polyline fill="#E53230" points="40.625,79.779 43.01,79.779 43.01,79.949 43.703,80.102 43.703,80.102 40.625,80.102
						41.091,79.94 					"/>
					<path fill="#FFFFFF" d="M48.29,78.803h-0.718v0.566h0.718c0.158,0,0.286-0.127,0.286-0.283S48.448,78.803,48.29,78.803z"/>
					<path fill="#010101" d="M47.895,79.086c0,0.156-0.128,0.283-0.286,0.283h-0.021c-0.158,0-0.286-0.127-0.286-0.283l0,0
						c0-0.156,0.128-0.283,0.286-0.283h0.021C47.767,78.803,47.895,78.93,47.895,79.086L47.895,79.086z"/>
				</g>
			</g>
		</g>
		<g>
			<g>
				<path fill="#C1B0B0" d="M83.269,83.863c-0.104-0.293-0.14-0.57-0.112-0.759c-0.313-0.289-0.727-0.468-1.178-0.468
					c-0.982,0-1.777,0.826-1.777,1.844s0.795,1.843,1.777,1.843c0.943,0,1.716-0.766,1.77-1.732
					C83.585,84.496,83.396,84.221,83.269,83.863z"/>
				<path fill="#DC2627" d="M82.957,83.646c0-0.211,0.069-0.404,0.182-0.564c-0.311-0.276-0.715-0.445-1.158-0.445
					c-0.982,0-1.779,0.826-1.779,1.844s0.797,1.843,1.779,1.843c0.943,0,1.714-0.761,1.774-1.722
					C83.303,84.522,82.957,84.127,82.957,83.646z"/>
				<path fill="#285227" d="M81.968,82.885c0.203,0.036,0.483-0.027,0.749-0.188c0.235-0.144,0.41-0.334,0.486-0.513
					c-0.227-0.07-0.516-0.03-0.776,0.128C82.188,82.457,82.025,82.67,81.968,82.885z"/>
				<path fill="#285227" d="M81.973,82.867c0.162-0.063,0.347-0.229,0.489-0.461c0.126-0.207,0.19-0.422,0.188-0.588
					c-0.19,0.047-0.391,0.201-0.529,0.43C81.994,82.457,81.945,82.683,81.973,82.867z"/>
			</g>
			<g>
				<g>
					<path fill="#C3996C" d="M96.399,115.287c-1.144,0.102-2.092-0.249-2.104-0.316c-0.014-0.068-0.133,1.245,2.064,1.256"/>
					<path fill="#C3996C" d="M96.399,116.088c-1.176,0.099-2.15-0.242-2.163-0.309c-0.015-0.066-0.138,1.211,2.123,1.223"/>
					<path fill="#C3996C" d="M96.371,116.813c-1.146,0.094-2.097-0.23-2.109-0.295c-0.013-0.063-0.133,1.155,2.071,1.166"/>
				</g>
				<path fill="#764E2A" d="M95.844,117.865c-0.08,0-0.16-0.018-0.236-0.045v-15.27h-0.022c-0.085-0.679-0.489-1.195-0.983-1.203
					l-2.964-0.037v-2.086h4.364v0.012c0.736,0.057,1.246,0.502,1.246,1.514l0.083,14.848
					C97.331,117.002,96.665,117.865,95.844,117.865z"/>
			</g>
			<g>
				<g>
					<path fill="#C3996C" d="M92.256,114.236c-1.143,0.104-2.092-0.248-2.104-0.316c-0.014-0.067-0.134,1.244,2.065,1.257"/>
					<path fill="#C3996C" d="M92.256,115.038c-1.176,0.099-2.15-0.243-2.163-0.31c-0.013-0.064-0.138,1.213,2.123,1.224"/>
					<path fill="#C3996C" d="M92.23,115.762c-1.148,0.096-2.1-0.23-2.111-0.293c-0.014-0.063-0.134,1.152,2.072,1.164"/>
				</g>
				<path fill="#764E2A" d="M91.464,108.192c0.078-0.013,0.156-0.024,0.237-0.024c0.82,0,1.486,0.666,1.486,1.488v5.67
					c0,0.822-0.666,1.488-1.486,1.488c-0.081,0-0.159-0.011-0.237-0.023V108.192z"/>
			</g>
			<g>
				<g>
					<path fill="#C3996C" d="M83.356,114.082c1.145,0.102,2.092-0.248,2.104-0.316c0.012-0.068,0.133,1.245-2.065,1.256"/>
					<path fill="#C3996C" d="M83.356,114.883c1.177,0.1,2.149-0.242,2.163-0.309c0.014-0.065,0.139,1.212-2.123,1.223"/>
					<path fill="#C3996C" d="M83.383,115.607c1.146,0.096,2.098-0.23,2.11-0.293c0.013-0.064,0.135,1.152-2.071,1.163"/>
				</g>
				<path fill="#764E2A" d="M84.147,108.037c-0.077-0.013-0.155-0.023-0.235-0.023c-0.822,0-1.488,0.666-1.488,1.487v5.671
					c0,0.821,0.666,1.488,1.488,1.488c0.081,0,0.158-0.012,0.235-0.024V108.037z"/>
			</g>
			<g>
				<g>
					<path fill="#C3996C" d="M79.426,85.559c1.145-0.104,2.092,0.248,2.104,0.315c0.013,0.069,0.134-1.245-2.065-1.256"/>
					<path fill="#C3996C" d="M79.426,84.758c1.176-0.1,2.15,0.24,2.164,0.308c0.013,0.065,0.137-1.212-2.124-1.224"/>
					<path fill="#C3996C" d="M79.453,84.033c1.146-0.096,2.097,0.23,2.11,0.294c0.013,0.063,0.134-1.155-2.072-1.165"/>
				</g>
				<path fill="#764E2A" d="M79.98,82.98c0.081,0,0.159,0.018,0.236,0.045v15.269h0.022c0.086,0.679,0.49,1.196,0.983,1.203
					l2.964,0.037v2.087h-4.364v-0.013c-0.735-0.055-1.245-0.501-1.245-1.515l-0.085-14.846C78.492,83.842,79.159,82.98,79.98,82.98z
					"/>
			</g>
			<path fill="#8B5F3D" d="M95.369,109.195c0,1.878-1.686,3.4-3.769,3.4h-7.014c-2.083,0-3.771-1.522-3.771-3.4V95.492
				c0-1.879,1.688-3.402,3.771-3.402h7.014c2.083,0,3.771,1.523,3.771,3.402v13.703H95.369z"/>
			<g>
				<path fill="#8B5F3D" d="M88.981,93.154c-0.093-0.885,0.268-1.615,0.336-1.623c0.068-0.01-1.245-0.118-1.275,1.584"/>
				<path fill="#8B5F3D" d="M88.18,93.146c-0.088-0.911,0.264-1.661,0.328-1.671c0.066-0.009-1.21-0.119-1.24,1.629"/>
				<path fill="#8B5F3D" d="M87.456,93.117c-0.083-0.889,0.251-1.621,0.313-1.631c0.063-0.008-1.151-0.116-1.183,1.59"/>
			</g>
			<g>
				<path fill="#D2D3D4" d="M94.222,104.107c0,1.592-0.718,1.566-2.774,1.566h-7.434c-1.574,0-1.943-0.602-2.007-1.762l-0.03-7.713
					c0-1.59,1.668-2.882,3.725-2.882h4.797c2.057,0,3.724,1.292,3.724,2.882V104.107z"/>
				<g>
					<path fill="#A8AAAD" d="M90.515,98.211c0.614-0.613,1.554-0.67,2.099-0.125l1.608,1.611v3.656
						c-0.422,0.061-0.846-0.05-1.147-0.354l-2.688-2.691C89.842,99.764,89.899,98.826,90.515,98.211z"/>
					<g>
						<ellipse fill="#C3996C" cx="91.701" cy="99.421" rx="1.338" ry="1.37"/>
						<ellipse fill="#595A5C" cx="91.701" cy="99.421" rx="1.007" ry="1.073"/>
					</g>
				</g>
				<g>
					<path fill="#A8AAAD" d="M85.686,98.211c-0.615-0.613-1.554-0.67-2.099-0.125l-1.61,1.611v3.656
						c0.424,0.061,0.848-0.05,1.15-0.354l2.688-2.691C86.359,99.764,86.301,98.826,85.686,98.211z"/>
					<g>
						<ellipse fill="#C3996C" cx="84.499" cy="99.421" rx="1.338" ry="1.37"/>
						<ellipse fill="#595A5C" cx="84.499" cy="99.421" rx="1.007" ry="1.073"/>
					</g>
				</g>
				<path fill="#595A5C" d="M89.01,102.295c0,0.322-0.239,0.584-0.534,0.584h-0.515c-0.295,0-0.534-0.262-0.534-0.584l0,0
					c0-0.32,0.239-0.583,0.534-0.583h0.515C88.771,101.712,89.01,101.975,89.01,102.295L89.01,102.295z"/>
				<path fill="#595A5C" d="M85.664,103.162c-0.012,0.053-0.021,0.109-0.021,0.168c0,0.297,0.173,0.535,0.385,0.535h4.142
					c0.213,0,0.385-0.238,0.385-0.535c0-0.059-0.008-0.115-0.02-0.168H85.664z"/>
			</g>
		</g>
		<path fill="#20783C" d="M107.873,35.714c0,0-36.193,1.015-36.193,2.268v16.443c0,1.252,1.016,2.268,2.268,2.268h29.6l1.338,4.592
			l4.479-5.15v-0.002c0.477-0.416,0.777-1.026,0.777-1.708V37.982C110.141,36.729,109.126,35.714,107.873,35.714z"/>
		<path fill="#27803F" d="M53.404,58.634c0,1.252,1.015,2.268,2.268,2.268h45.641c1.253,0,2.268-1.016,2.268-2.268V35.847V11.525
			c0-1.252-1.015-2.268-2.268-2.268H55.672c-1.253,0-2.268,1.016-2.268,2.268V58.634z"/>
		<path fill="#20783C" d="M82.759,3.871H37.117c-0.723,0-1.365,0.34-1.78,0.866l-4.281,4.932c-0.167,0.144-0.313,0.312-0.433,0.499
			l-0.006,0.007h0.001c-0.223,0.352-0.354,0.767-0.354,1.213v47.108c0,1.253,1.015,2.268,2.268,2.268h45.641
			c1.253,0,2.268-1.015,2.268-2.268v-2.981h2.316c1.253,0,2.268-1.015,2.268-2.268V6.139C85.026,4.887,84.012,3.871,82.759,3.871z"
			/>
		<path fill="#27803F" d="M104.428,54.586h-5.43V16.774c0-1.253-1.017-2.269-2.27-2.269h-7.906l-3.796-5.249l-4.202,5.249H51.088
			c-1.252,0-2.268,1.016-2.268,2.269v28.015H26.318c-0.618,0-1.179,0.248-1.588,0.65v0l-0.003,0.004
			c-0.075,0.073-0.143,0.152-0.207,0.235l-4.491,5.133l0.001,0.001c-0.351,0.399-0.565,0.921-0.565,1.494V68.75
			c0,1.251,1.016,2.268,2.269,2.268h33.925c1.253,0,2.269-1.017,2.269-2.268v-2.6h8.156v5.774c0,1.253,1.015,2.269,2.268,2.269
			h36.076c1.253,0,2.268-1.016,2.268-2.269V56.854C106.695,55.602,105.681,54.586,104.428,54.586z"/>
		<path fill="#20783C" d="M106.695,39.885l-3.114-4.038l-2.597,2.835L71.68,38.467l-3.74,3c-0.01,0.007-0.018,0.015-0.027,0.022
			l-0.006,0.005h0.001c-0.495,0.416-0.812,1.04-0.812,1.737v8.833H45.549c-0.627,0-1.194,0.253-1.604,0.665
			c-0.064,0.064-0.123,0.133-0.179,0.205l-4.524,5.174l0.001,0c-0.34,0.396-0.546,0.91-0.546,1.473v15.071
			c0,1.252,1.016,2.269,2.268,2.269h36.077c1.252,0,2.268-1.017,2.268-2.269v-2.981h2.316c1.252,0,2.268-1.017,2.268-2.268v-7.46
			h19.397c1.252,0,2.268-1.016,2.268-2.268V43.231c0-0.059-0.005-0.116-0.009-0.173L106.695,39.885z"/>
		<path fill="#27803F" d="M101.782,78.348l4.402-4.932l-0.289-17.647l-0.338-0.88l-1.233,1.314l-37.229,0.108l-4.617,3.926
			c-0.123,0.085-0.237,0.182-0.34,0.29l0,0l0,0c-0.395,0.408-0.639,0.963-0.639,1.575v15.071c0,1.252,1.015,2.269,2.268,2.269
			h36.076c0.518,0,0.994-0.176,1.376-0.47v0.004l0.009-0.009C101.449,78.797,101.637,78.587,101.782,78.348z"/>
	</g>
</g>
</svg>
