<?xml version="1.0" encoding="utf-8"?>
<!-- Generator: Adobe Illustrator 16.0.3, SVG Export Plug-In . SVG Version: 6.00 Build 0)  -->
<!DOCTYPE svg PUBLIC "-//W3C//DTD SVG 1.1//EN" "http://www.w3.org/Graphics/SVG/1.1/DTD/svg11.dtd">
<svg version="1.1" id="Layer_1" xmlns="http://www.w3.org/2000/svg" xmlns:xlink="http://www.w3.org/1999/xlink" x="0px" y="0px"
	 width="612px" height="792px" viewBox="0 0 612 792" enable-background="new 0 0 612 792" xml:space="preserve">
<g>
	<g>
		<g>
			<path fill="#C3996C" d="M65.802,110.318c-4.035,0.358-7.377-0.879-7.422-1.119c-0.045-0.239-0.471,4.393,7.284,4.433"/>
			<path fill="#C3996C" d="M65.802,113.141c-4.147,0.351-7.584-0.854-7.631-1.088c-0.046-0.233-0.482,4.274,7.489,4.313"/>
			<path fill="#C3996C" d="M65.708,115.697c-4.046,0.334-7.4-0.813-7.445-1.037c-0.045-0.223-0.471,4.07,7.309,4.107"/>
		</g>
		<path fill="#383A3A" d="M63.843,119.41c-0.283,0-0.562-0.063-0.832-0.155v-53.86h-0.08c-0.302-2.398-1.729-4.221-3.467-4.242
			l-10.455-0.133v-7.357h15.396v0.039c2.593,0.197,4.393,1.769,4.393,5.344l0.295,52.367
			C69.093,116.367,66.742,119.41,63.843,119.41z"/>
	</g>
	<g>
		<g>
			<path fill="#C3996C" d="M51.188,105.434c-4.034,0.358-7.377-0.878-7.422-1.118s-0.471,4.393,7.285,4.432"/>
			<path fill="#C3996C" d="M51.188,108.257c-4.147,0.351-7.584-0.854-7.631-1.088c-0.045-0.232-0.482,4.275,7.49,4.313"/>
			<path fill="#C3996C" d="M51.095,110.814c-4.045,0.333-7.399-0.814-7.444-1.037c-0.046-0.223-0.472,4.07,7.308,4.107"/>
		</g>
		<path fill="#383A3A" d="M48.396,84.111c0.273-0.044,0.549-0.084,0.834-0.084c2.898,0,5.25,2.352,5.25,5.25v20
			c0,2.898-2.352,5.25-5.25,5.25c-0.286,0-0.562-0.039-0.834-0.084V84.111z"/>
	</g>
	<g>
		<g>
			<path fill="#C3996C" d="M19.797,104.888c4.034,0.358,7.377-0.879,7.422-1.119c0.044-0.239,0.47,4.393-7.285,4.433"/>
			<path fill="#C3996C" d="M19.797,107.711c4.147,0.351,7.583-0.854,7.63-1.088c0.046-0.233,0.483,4.274-7.489,4.313"/>
			<path fill="#C3996C" d="M19.89,110.267c4.046,0.334,7.4-0.813,7.445-1.037c0.045-0.223,0.471,4.07-7.308,4.107"/>
		</g>
		<path fill="#383A3A" d="M22.588,83.565c-0.273-0.044-0.548-0.085-0.833-0.085c-2.899,0-5.25,2.352-5.25,5.25v20
			c0,2.899,2.351,5.25,5.25,5.25c0.286,0,0.561-0.039,0.833-0.084V83.565z"/>
	</g>
	<g>
		<g>
			<path fill="#C3996C" d="M7.182,110.318c4.034,0.359,7.377-0.878,7.422-1.117c0.044-0.24,0.47,4.391-7.285,4.432"/>
			<path fill="#C3996C" d="M7.182,113.142c4.147,0.35,7.583-0.855,7.63-1.088c0.046-0.233,0.483,4.273-7.489,4.313"/>
			<path fill="#C3996C" d="M7.275,115.699c4.046,0.332,7.4-0.814,7.445-1.037c0.045-0.224,0.471,4.069-7.308,4.106"/>
		</g>
		<path fill="#383A3A" d="M9.14,119.412c0.284,0,0.562-0.063,0.833-0.156v-53.86h0.079c0.302-2.399,1.729-4.222,3.468-4.243
			l10.454-0.133v-7.357H8.578v0.039c-2.593,0.197-4.393,1.768-4.393,5.344L3.89,111.412C3.89,116.367,6.241,119.412,9.14,119.412z"
			/>
	</g>
	<path fill="#8B5F3D" d="M62.173,87.646c0,6.628-5.953,12-13.296,12H24.134c-7.343,0-13.295-5.372-13.295-12V39.314
		c0-6.627,5.952-12,13.295-12h24.744c7.344,0,13.295,5.373,13.295,12V87.646L62.173,87.646z"/>
	<g>
		<path fill="#8B5F3D" d="M39.638,31.072c-0.324-3.126,0.944-5.699,1.185-5.73c0.239-0.031-4.388-0.416-4.497,5.586"/>
		<path fill="#8B5F3D" d="M36.813,31.039c-0.313-3.213,0.923-5.859,1.157-5.893c0.233-0.032-4.271-0.424-4.379,5.746"/>
		<path fill="#8B5F3D" d="M34.258,30.937c-0.295-3.135,0.881-5.717,1.104-5.75c0.223-0.031-4.065-0.411-4.172,5.608"/>
	</g>
	
		<rect x="18.777" y="68.312" fill="#FFFFFF" stroke="#010101" stroke-width="1.3756" stroke-miterlimit="10" width="36.378" height="18.225"/>
	<polyline fill="#595A5C" points="32.808,73.98 36.528,77.389 40.249,73.98 	"/>
	<path fill="#383A3A" d="M62.201,87.646c0,6.628-5.952,12-13.295,12H37.02V80.679l25.181-27.242V87.646z"/>
	<path fill="#383A3A" d="M10.718,87.642c0,6.627,5.952,12,13.295,12h11.886V80.675L10.631,53.442L10.718,87.642z"/>
	<polyline fill="#595A5C" points="36.528,77.389 31.708,98.129 36.528,107.351 41.349,98.129 	"/>
	<g>
		<path fill="#D2D3D4" d="M58.125,69.705c0,5.615-2.536,5.525-9.791,5.525H22.116c-5.557,0-6.859-2.121-7.082-6.217L14.932,41.81
			c0-5.613,5.881-10.166,13.135-10.166H44.99c7.254,0,13.135,4.553,13.135,10.166V69.705z"/>
		<g>
			<path fill="#A8AAAD" d="M45.045,48.906c2.169-2.166,5.483-2.365,7.402-0.444l5.678,5.687v12.895
				c-1.491,0.215-2.985-0.175-4.052-1.242l-9.48-9.494C42.673,54.386,42.875,51.072,45.045,48.906z"/>
			<g>
				<ellipse fill="#C3996C" cx="49.229" cy="53.172" rx="4.719" ry="4.833"/>
				<ellipse fill="#595A5C" cx="49.229" cy="53.173" rx="3.551" ry="3.783"/>
			</g>
		</g>
		<g>
			<path fill="#A8AAAD" d="M28.012,48.906c-2.169-2.166-5.483-2.365-7.402-0.444l-5.678,5.687v12.895
				c1.491,0.215,2.986-0.175,4.052-1.242l9.481-9.494C30.384,54.386,30.181,51.072,28.012,48.906z"/>
			<g>
				<ellipse fill="#C3996C" cx="23.828" cy="53.172" rx="4.719" ry="4.833"/>
				<ellipse fill="#595A5C" cx="23.828" cy="53.173" rx="3.551" ry="3.783"/>
			</g>
		</g>
		<path fill="#595A5C" d="M39.737,63.314c0,1.136-0.844,2.058-1.881,2.058h-1.821c-1.039,0-1.881-0.922-1.881-2.058l0,0
			c0-1.137,0.843-2.057,1.881-2.057h1.821C38.894,61.257,39.737,62.177,39.737,63.314L39.737,63.314z"/>
		<path fill="#595A5C" d="M27.939,66.371c-0.044,0.188-0.074,0.383-0.074,0.591c0,1.044,0.608,1.892,1.358,1.892h14.61
			c0.75,0,1.357-0.848,1.357-1.892c0-0.208-0.029-0.403-0.073-0.591H27.939z"/>
	</g>
	<g>
		
			<ellipse transform="matrix(0.9996 0.0285 -0.0285 0.9996 0.8997 -1.0709)" fill="#595A5C" cx="37.978" cy="30.991" rx="28.375" ry="5.318"/>
		<path fill="#383A3A" d="M51.759,31.88l0.708-24.775l-27.23-0.777l-0.714,24.999c-0.032,1.128,6.057,2.218,13.6,2.433
			c7.542,0.216,13.684-0.524,13.716-1.652C51.841,32.031,51.812,31.956,51.759,31.88z"/>
		
			<ellipse transform="matrix(0.9996 0.0285 -0.0285 0.9996 0.2074 -1.1064)" fill="#595A5C" cx="38.895" cy="6.717" rx="13.664" ry="2.045"/>
	</g>
	<ellipse fill="#F4C541" cx="56.593" cy="54.419" rx="1.125" ry="1.246"/>
	<ellipse fill="#F4C541" cx="58.249" cy="55.419" rx="1.125" ry="1.246"/>
	<ellipse fill="#F4C541" cx="60.093" cy="55.857" rx="1.125" ry="1.246"/>
	<g>
		<ellipse opacity="0.6" fill="#C9C9C9" cx="49.909" cy="53.437" rx="5.846" ry="6.581"/>
		<path fill="#F4C541" d="M49.608,46.893c-3.553,0-6.432,2.938-6.432,6.563s2.879,6.563,6.432,6.563
			c3.552,0,6.432-2.938,6.432-6.563S53.16,46.893,49.608,46.893z M49.608,59.179c-3.062,0-5.543-2.482-5.543-5.543
			c0-3.062,2.481-5.543,5.543-5.543c3.061,0,5.542,2.481,5.542,5.543C55.15,56.697,52.669,59.179,49.608,59.179z"/>
	</g>
	<ellipse fill="#F4C541" cx="61.749" cy="55.857" rx="1.125" ry="1.246"/>
</g>
</svg>
