<?xml version="1.0" encoding="utf-8"?>
<!-- Generator: Adobe Illustrator 16.0.0, SVG Export Plug-In . SVG Version: 6.00 Build 0)  -->
<!DOCTYPE svg PUBLIC "-//W3C//DTD SVG 1.1//EN" "http://www.w3.org/Graphics/SVG/1.1/DTD/svg11.dtd">
<svg version="1.1" id="Layer_1" xmlns="http://www.w3.org/2000/svg" xmlns:xlink="http://www.w3.org/1999/xlink" x="0px" y="0px"
	 width="612px" height="792px" viewBox="0 0 612 792" enable-background="new 0 0 612 792" xml:space="preserve">
<g>
	<g>
		<g>
			<path fill="#C2986B" d="M67.223,87.013c-4.15,0.355-7.592-0.865-7.639-1.103c-0.045-0.237-0.484,4.335,7.498,4.374"/>
			<path fill="#C2986B" d="M67.223,89.801c-4.268,0.345-7.805-0.844-7.853-1.073c-0.048-0.23-0.497,4.219,7.708,4.256"/>
			<path fill="#C2986B" d="M67.126,92.324c-4.163,0.327-7.614-0.804-7.661-1.023s-0.485,4.018,7.521,4.054"/>
		</g>
		<path fill="#077073" d="M65.209,95.989c-0.294,0-0.579-0.063-0.859-0.154V42.667h-0.08c-0.311-2.368-1.781-4.167-3.569-4.188
			l-10.759-0.13v-7.264h15.844v0.039c2.67,0.195,4.523,1.746,4.523,5.275l0.301,51.693C70.612,92.983,68.192,95.989,65.209,95.989z"
			/>
	</g>
	<g>
		<g>
			<path fill="#C2986B" d="M52.184,82.192c-4.15,0.354-7.592-0.866-7.639-1.104c-0.045-0.236-0.482,4.335,7.498,4.376"/>
			<path fill="#C2986B" d="M52.184,84.98c-4.268,0.345-7.804-0.845-7.852-1.073c-0.048-0.23-0.498,4.219,7.707,4.257"/>
			<path fill="#C2986B" d="M52.088,87.503c-4.164,0.329-7.614-0.803-7.661-1.023c-0.047-0.22-0.485,4.018,7.52,4.054"/>
		</g>
		<path fill="#194170" d="M49.311,61.144c0.279-0.043,0.563-0.083,0.857-0.083c2.982,0,5.402,2.321,5.402,5.183v19.742
			c0,2.863-2.42,5.184-5.402,5.184c-0.294,0-0.578-0.039-0.857-0.084V61.144z"/>
	</g>
	<g>
		<g>
			<path fill="#C2986B" d="M19.879,81.653c4.151,0.354,7.591-0.867,7.638-1.104c0.045-0.236,0.483,4.336-7.498,4.375"/>
			<path fill="#C2986B" d="M19.879,84.44c4.267,0.346,7.804-0.844,7.853-1.074c0.047-0.229,0.497,4.22-7.708,4.258"/>
			<path fill="#C2986B" d="M19.975,86.964c4.164,0.328,7.615-0.803,7.661-1.023c0.047-0.219,0.485,4.018-7.52,4.055"/>
		</g>
		<path fill="#194170" d="M22.751,60.604c-0.281-0.043-0.564-0.084-0.857-0.084c-2.984,0-5.403,2.322-5.403,5.184v19.743
			c0,2.861,2.419,5.183,5.403,5.183c0.294,0,0.577-0.039,0.857-0.083V60.604z"/>
	</g>
	<g>
		<g>
			<path fill="#C2986B" d="M6.896,87.014c4.15,0.354,7.592-0.866,7.638-1.104c0.045-0.237,0.483,4.336-7.498,4.374"/>
			<path fill="#C2986B" d="M6.896,89.802c4.267,0.346,7.804-0.844,7.852-1.074c0.047-0.23,0.498,4.22-7.708,4.258"/>
			<path fill="#C2986B" d="M6.992,92.324c4.164,0.33,7.615-0.804,7.662-1.023s0.485,4.018-7.52,4.055"/>
		</g>
		<path fill="#077073" d="M8.911,95.989c0.292,0,0.578-0.062,0.857-0.154V42.668h0.081c0.312-2.368,1.779-4.167,3.569-4.188
			l10.759-0.131v-7.264H8.333v0.04c-2.669,0.195-4.522,1.745-4.522,5.274L3.508,88.093C3.508,92.985,5.927,95.989,8.911,95.989z"/>
	</g>
	<path fill="#8B603E" d="M63.489,64.634c0,6.542-6.125,11.846-13.684,11.846H24.342c-7.557,0-13.683-5.304-13.683-11.846V16.922
		c0-6.542,6.126-11.846,13.683-11.846h25.463c7.559,0,13.686,5.304,13.686,11.846v47.712H63.489z"/>
	<g>
		<path fill="#8B603E" d="M40.297,8.786C39.963,5.7,41.27,3.16,41.517,3.129c0.246-0.031-4.517-0.41-4.629,5.515"/>
		<path fill="#8B603E" d="M37.39,8.753c-0.321-3.172,0.951-5.784,1.19-5.817c0.24-0.031-4.394-0.417-4.507,5.673"/>
		<path fill="#8B603E" d="M34.761,8.653c-0.303-3.094,0.907-5.644,1.136-5.676c0.229-0.031-4.183-0.406-4.293,5.536"/>
	</g>
	
		<rect x="18.829" y="45.547" fill="#FFFFFF" stroke="#010101" stroke-width="1.3756" stroke-miterlimit="10" width="37.438" height="17.991"/>
	<g>
		<rect x="16.505" y="60.56" fill="#24B14B" width="38.802" height="1.002"/>
		<rect x="18.147" y="58.542" fill="#24B14B" width="38.803" height="1.004"/>
		<rect x="19.188" y="56.323" fill="#24B14B" width="38.802" height="1.002"/>
		<rect x="20.999" y="54.041" fill="#24B14B" width="38.802" height="1.003"/>
		<rect x="22.125" y="51.875" fill="#24B14B" width="38.802" height="1.003"/>
	</g>
	<path fill="#077073" d="M10.535,64.63c0,6.541,6.125,11.846,13.683,11.846h12.231V63.537L10.446,30.869L10.535,64.63z"/>
	<path fill="#108787" d="M62.385,64.634c0,6.542-6.127,11.846-13.684,11.846l-13.944-0.004l-0.069-13.191l28.83-32.42L62.385,64.634
		z"/>
	<path fill="#077073" d="M63.518,64.634c0,6.542-6.125,11.846-13.682,11.846l-14.589-0.004V63.538l28.271-32.674V64.634z"/>
	<g>
		<ellipse fill="#271E12" cx="36.449" cy="65.543" rx="0.608" ry="0.603"/>
		<circle fill="#271E12" cx="36.467" cy="69.125" r="0.608"/>
		<circle fill="#271E12" cx="36.467" cy="72.786" r="0.608"/>
	</g>
	<g>
		<path fill="#D2D3D3" d="M59.323,46.922c0,5.543-2.609,5.454-10.075,5.454H22.265c-5.718,0-7.058-2.093-7.288-6.136l-0.104-26.854
			c0-5.542,6.052-10.035,13.518-10.035h17.417c7.466,0,13.517,4.494,13.517,10.035V46.922z"/>
		<g>
			<path fill="#A7A8AC" d="M45.863,26.391c2.231-2.139,5.642-2.335,7.618-0.439l5.842,5.613v12.729
				c-1.534,0.211-3.072-0.172-4.17-1.226l-9.757-9.372C43.421,31.801,43.629,28.529,45.863,26.391z"/>
			<g>
				<ellipse fill="#C2986B" cx="50.168" cy="30.603" rx="4.855" ry="4.771"/>
				<ellipse fill="#5A5A5D" cx="50.168" cy="30.603" rx="3.654" ry="3.734"/>
			</g>
		</g>
		<g>
			<path fill="#A7A8AC" d="M28.333,26.391c-2.232-2.139-5.643-2.335-7.618-0.439l-5.843,5.613v12.729
				c1.535,0.211,3.073-0.172,4.171-1.226l9.756-9.372C30.774,31.801,30.565,28.529,28.333,26.391z"/>
			<g>
				<ellipse fill="#C2986B" cx="24.027" cy="30.603" rx="4.856" ry="4.771"/>
				<ellipse fill="#5A5A5D" cx="24.027" cy="30.603" rx="3.655" ry="3.734"/>
			</g>
		</g>
		<path fill="#5A5A5D" d="M28.258,45.547c-0.045,0.185-0.075,0.377-0.075,0.583c0,1.031,0.625,1.867,1.397,1.867h15.034
			c0.773,0,1.398-0.836,1.398-1.867c0-0.206-0.031-0.398-0.075-0.583H28.258z"/>
		<path fill="#C2986B" d="M27.448,45.147c-0.05-0.094-0.083-0.192-0.083-0.297c0-0.527,0.695-0.954,1.555-0.954h16.739
			c0.859,0,1.557,0.427,1.557,0.954c0,0.105-0.035,0.203-0.084,0.297H27.448z"/>
		<path fill="#5A5A5D" d="M39.93,42.808c0,1.122-0.867,2.032-1.936,2.032h-1.874c-1.069,0-1.936-0.91-1.936-2.032l0,0
			c0-1.122,0.867-2.03,1.936-2.03h1.874C39.063,40.778,39.93,41.687,39.93,42.808L39.93,42.808z"/>
	</g>
	<g>
		<path opacity="0.8" fill="#636564" d="M17.68,30.997c0.816,3.536,1.379,6.774,7.437,7.227c6.058,0.451,7.62-4.021,8.277-6.779
			c0.66-2.768,0.241-5.141-1.14-6.102c-1.378-0.96-4.43-1.469-6.683-1.412c-2.253,0.056-5.012,0.396-6.631,1.412
			C17.321,26.36,17.166,28.763,17.68,30.997z"/>
		<path opacity="0.8" fill="#636564" d="M56.586,30.997c-0.815,3.536-1.379,6.774-7.437,7.227c-6.058,0.451-7.619-4.021-8.276-6.779
			c-0.66-2.768-0.241-5.141,1.139-6.102c1.38-0.96,4.432-1.469,6.685-1.412c2.253,0.056,5.011,0.396,6.631,1.412
			C56.946,26.36,57.103,28.763,56.586,30.997z"/>
		<path fill="#141414" d="M32.753,24.66c-1.496-1.074-4.808-1.643-7.252-1.579c-2.446,0.063-5.441,0.442-7.198,1.579
			c-1.758,1.137-1.928,3.824-1.367,6.321c0.885,3.952,1.498,7.573,8.072,8.078c6.575,0.505,8.27-4.495,8.983-7.579
			C34.707,28.386,34.251,25.733,32.753,24.66z M33.087,31.437c-0.637,2.738-2.153,7.178-8.028,6.73
			c-5.877-0.449-6.423-3.664-7.215-7.173c-0.5-2.218-0.349-4.604,1.222-5.613c1.571-1.01,4.247-1.346,6.434-1.402
			c2.185-0.056,5.145,0.449,6.483,1.402C33.32,26.333,33.728,28.688,33.087,31.437z"/>
		<path fill="#141414" d="M40.204,31.48c0.715,3.084,2.408,8.084,8.983,7.579s7.186-4.126,8.072-8.078
			c0.56-2.498,0.39-5.185-1.366-6.321c-1.758-1.137-4.752-1.516-7.198-1.579c-2.445-0.063-5.757,0.505-7.255,1.579
			C39.944,25.733,39.489,28.386,40.204,31.48z M42.212,25.38c1.339-0.953,4.298-1.458,6.484-1.402
			c2.185,0.056,4.862,0.392,6.433,1.402c1.571,1.009,1.723,3.395,1.221,5.613c-0.791,3.509-1.337,6.725-7.213,7.173
			c-5.878,0.448-7.391-3.992-8.03-6.73C40.467,28.688,40.875,26.333,42.212,25.38z"/>
		<polygon fill="#141414" points="17.419,28.408 11.8,26.663 11.8,24.313 17.419,26.063 		"/>
		<polygon fill="#141414" points="56.849,28.916 62.467,27.171 62.467,24.821 56.849,26.571 		"/>
		<path fill="#141414" d="M41.526,24.649c-0.016,0.095-0.162,0.192-0.392,0.287v-0.096c-0.004,0.036-0.015,0.072-0.031,0.109
			c-0.897,0.359-2.983,0.68-3.933,0.687c-1.213-0.009-4.273-0.529-4.353-0.987v0.941c0.032,0.025,0.089,0.068,0.175,0.122v0.691
			c0.094,0.126,0.398,0.538,1.116,0.895c-0.266,0.239-0.401,0.454-0.455,0.539v1.563c0.051-0.615,1.65-1.296,2.769-1.543
			c0.19,0.013,0.388,0.021,0.599,0.022v0.001c0.015,0,0.069,0,0.084,0v-0.001c0.237-0.001,0.456-0.013,0.667-0.029
			c1.12,0.242,2.743,0.93,2.794,1.549v-1.563c-0.055-0.089-0.197-0.318-0.488-0.57c0.676-0.349,0.965-0.741,1.056-0.864v-0.572
			c0.217-0.108,0.339-0.2,0.392-0.241V24.649z"/>
	</g>
</g>
</svg>
