<?xml version="1.0" encoding="utf-8"?>
<!-- Generator: Adobe Illustrator 16.0.3, SVG Export Plug-In . SVG Version: 6.00 Build 0)  -->
<!DOCTYPE svg PUBLIC "-//W3C//DTD SVG 1.1//EN" "http://www.w3.org/Graphics/SVG/1.1/DTD/svg11.dtd">
<svg version="1.1" id="Layer_1" xmlns="http://www.w3.org/2000/svg" xmlns:xlink="http://www.w3.org/1999/xlink" x="0px" y="0px"
	 width="612px" height="792px" viewBox="0 0 612 792" enable-background="new 0 0 612 792" xml:space="preserve">
<g>
	<g>
		<g>
			<path fill="#C3996C" d="M20.641,158.076c4.034,0.359,7.377-0.877,7.422-1.117c0.044-0.24,0.47,4.393-7.285,4.432"/>
			<path fill="#C3996C" d="M20.641,160.9c4.147,0.35,7.583-0.854,7.63-1.088c0.046-0.232,0.483,4.275-7.489,4.313"/>
			<path fill="#C3996C" d="M20.734,163.457c4.046,0.332,7.4-0.814,7.445-1.037c0.045-0.223,0.471,4.07-7.308,4.107"/>
		</g>
		<path fill="#010101" d="M23.432,136.754c-0.273-0.045-0.548-0.084-0.833-0.084c-2.899,0-5.25,2.352-5.25,5.25v20
			c0,2.898,2.351,5.25,5.25,5.25c0.286,0,0.561-0.039,0.833-0.084V136.754z"/>
	</g>
	<g>
		<g>
			<path fill="#E2CDB8" d="M8.026,161.666c4.034,0.359,7.377-0.877,7.422-1.117c0.044-0.24,0.47,4.393-7.285,4.432"/>
			<path fill="#E2CDB8" d="M8.026,164.49c4.147,0.352,7.583-0.854,7.63-1.088c0.046-0.232,0.483,4.275-7.489,4.314"/>
			<path fill="#E2CDB8" d="M8.119,167.047c4.046,0.334,7.4-0.814,7.445-1.037c0.045-0.223,0.471,4.07-7.308,4.107"/>
		</g>
		<path fill="#BE2026" d="M9.984,170.76c0.284,0,0.562-0.063,0.833-0.156v-53.859h0.079c0.302-2.398,1.729-4.221,3.468-4.244
			l10.454-0.133v-7.357H9.422v0.041c-2.593,0.195-4.393,1.768-4.393,5.342L4.734,162.76C4.734,167.717,7.084,170.76,9.984,170.76z"
			/>
	</g>
	<g>
		<g>
			<path fill="#E2CDB8" d="M67.455,161.666c-4.034,0.359-7.377-0.877-7.422-1.117s-0.471,4.393,7.285,4.432"/>
			<path fill="#E2CDB8" d="M67.455,164.49c-4.147,0.352-7.584-0.854-7.631-1.088c-0.045-0.232-0.482,4.275,7.49,4.314"/>
			<path fill="#E2CDB8" d="M67.361,167.047c-4.045,0.334-7.399-0.814-7.444-1.037c-0.046-0.223-0.472,4.07,7.308,4.107"/>
		</g>
		<path fill="#BE2026" d="M65.496,170.76c-0.283,0-0.562-0.063-0.832-0.156v-53.859h-0.079c-0.302-2.398-1.729-4.221-3.468-4.244
			l-10.455-0.133v-7.357h15.396v0.041c2.594,0.195,4.393,1.768,4.393,5.342l0.295,52.367
			C70.746,167.717,68.396,170.76,65.496,170.76z"/>
	</g>
	<g>
		<g>
			<path fill="#C3996C" d="M54.84,158.076c-4.034,0.359-7.377-0.877-7.422-1.117s-0.471,4.393,7.285,4.432"/>
			<path fill="#C3996C" d="M54.84,160.9c-4.147,0.35-7.584-0.854-7.631-1.088c-0.045-0.232-0.482,4.275,7.49,4.313"/>
			<path fill="#C3996C" d="M54.746,163.457c-4.045,0.332-7.399-0.814-7.444-1.037c-0.046-0.223-0.472,4.07,7.308,4.107"/>
		</g>
		<path fill="#010101" d="M52.049,136.754c0.273-0.045,0.548-0.084,0.832-0.084c2.9,0,5.25,2.352,5.25,5.25v20
			c0,2.898-2.35,5.25-5.25,5.25c-0.285,0-0.561-0.039-0.832-0.084V136.754z"/>
	</g>
	<rect x="6.246" y="104.291" fill="#010101" width="4.75" height="2.07"/>
	<rect x="63.018" y="103.975" fill="#010101" width="4.75" height="2.07"/>
	<path fill="#BE2026" d="M63.016,140.836c0,6.627-5.951,12-13.295,12H24.978c-7.343,0-13.295-5.373-13.295-12V92.502
		c0-6.627,5.952-12,13.295-12h24.744c7.343,0,13.296,5.373,13.296,12v48.334H63.016z"/>
	<line fill="none" stroke="#FFF7DF" stroke-miterlimit="10" x1="36.034" y1="128.418" x2="36.034" y2="152.836"/>
	<path fill="#F4CD7F" d="M11.623,140.67c0,2.707,1.011,5.199,2.696,7.207h46.193c1.085-1.293,1.883-2.785,2.316-4.408v-2.842H11.623
		V140.67z"/>
	<path fill="#010101" d="M50.58,8.416H24.12c-6.869,0-12.437,4.005-12.437,8.945v93.177c0,2.457,1.38,4.684,3.611,6.299
		c2.042-2.748,6.903-4.684,12.58-4.684h17.539c6.11,0,11.279,2.242,13.001,5.328c2.807-1.641,4.604-4.139,4.604-6.943V17.36
		C63.018,12.42,57.449,8.416,50.58,8.416z"/>
	<g>
		<path fill="#D2D3D4" d="M58.969,122.895c0,5.615-2.535,5.523-9.791,5.523H22.96c-5.557,0-6.859-2.119-7.082-6.215L15.776,95
			c0-5.613,5.881-10.166,13.135-10.166h16.923c7.254,0,13.135,4.553,13.135,10.166V122.895z"/>
		<g>
			<path fill="#A8AAAD" d="M45.889,102.096c2.17-2.166,5.483-2.365,7.402-0.445l5.678,5.686v12.896
				c-1.49,0.213-2.986-0.176-4.052-1.242l-9.481-9.494C43.518,107.574,43.719,104.262,45.889,102.096z"/>
			<g>
				<ellipse fill="#C3996C" cx="50.072" cy="106.362" rx="4.72" ry="4.833"/>
				<ellipse fill="#595A5C" cx="50.072" cy="106.361" rx="3.552" ry="3.783"/>
			</g>
		</g>
		<g>
			<path fill="#A8AAAD" d="M28.856,102.096c-2.169-2.166-5.483-2.365-7.402-0.445l-5.678,5.686v12.896
				c1.491,0.213,2.986-0.176,4.052-1.242l9.481-9.494C31.228,107.574,31.025,104.262,28.856,102.096z"/>
			<g>
				<ellipse fill="#C3996C" cx="24.672" cy="106.362" rx="4.719" ry="4.833"/>
				<ellipse fill="#595A5C" cx="24.672" cy="106.361" rx="3.551" ry="3.783"/>
			</g>
		</g>
		<path fill="#595A5C" d="M40.581,116.502c0,1.137-0.843,2.059-1.881,2.059h-1.821c-1.039,0-1.881-0.922-1.881-2.059l0,0
			c0-1.135,0.843-2.057,1.881-2.057H38.7C39.738,114.445,40.581,115.367,40.581,116.502L40.581,116.502z"/>
		<path fill="#595A5C" d="M28.783,119.561c-0.044,0.186-0.074,0.383-0.074,0.59c0,1.045,0.608,1.891,1.358,1.891h14.61
			c0.75,0,1.358-0.846,1.358-1.891c0-0.207-0.03-0.404-0.074-0.59H28.783z"/>
	</g>
	<g>
		<rect x="62.586" y="5.791" fill="#333333" width="2.297" height="131.5"/>
		<path fill="#5F4219" d="M65.953,166.572c0,1.225-0.992,2.219-2.219,2.219l0,0c-1.225,0-2.219-0.994-2.219-2.219v-37.059
			c0-1.227,0.994-2.219,2.219-2.219l0,0c1.227,0,2.219,0.992,2.219,2.219V166.572z"/>
	</g>
	<ellipse fill="#F4CD7F" cx="37.653" cy="131.666" rx="1.769" ry="1.75"/>
	<ellipse fill="#F4CD7F" cx="37.79" cy="137.885" rx="1.769" ry="1.75"/>
	<g>
		<path fill="#010101" d="M40.605,11.387c-0.322-3.126,0.945-5.699,1.186-5.731c0.24-0.031-4.388-0.415-4.497,5.587"/>
		<path fill="#010101" d="M37.782,11.354c-0.313-3.213,0.923-5.859,1.156-5.893c0.234-0.032-4.27-0.423-4.378,5.747"/>
		<path fill="#010101" d="M35.227,11.252c-0.295-3.135,0.881-5.718,1.104-5.75c0.223-0.032-4.065-0.412-4.172,5.608"/>
	</g>
</g>
</svg>
