<?xml version="1.0" encoding="utf-8"?>
<!-- Generator: Adobe Illustrator 16.0.3, SVG Export Plug-In . SVG Version: 6.00 Build 0)  -->
<!DOCTYPE svg PUBLIC "-//W3C//DTD SVG 1.1//EN" "http://www.w3.org/Graphics/SVG/1.1/DTD/svg11.dtd">
<svg version="1.1" id="Layer_1" xmlns="http://www.w3.org/2000/svg" xmlns:xlink="http://www.w3.org/1999/xlink" x="0px" y="0px"
	 width="612px" height="792px" viewBox="0 0 612 792" enable-background="new 0 0 612 792" xml:space="preserve">
<g>
	<g>
		<polyline fill="#79CCCA" points="62.35,77.075 67.014,120.178 69.87,75.859 		"/>
		<g>
			<path fill="#C3996C" d="M62.079,73.805c0.198,4.045-1.17,7.335-1.412,7.37c-0.241,0.034,4.37,0.644,4.718-7.103"/>
			<path fill="#C3996C" d="M64.901,73.916c0.185,4.158-1.156,7.543-1.392,7.58c-0.234,0.037,4.252,0.652,4.607-7.311"/>
			<path fill="#C3996C" d="M67.451,74.11c0.172,4.056-1.107,7.362-1.332,7.397c-0.225,0.037,4.048,0.633,4.394-7.139"/>
		</g>
		<path fill="#9C3B32" d="M40.663,75.744c-0.034-0.274-0.063-0.551-0.052-0.836c0.115-2.896,2.558-5.152,5.454-5.037l19.984,0.796
			c2.896,0.115,5.152,2.558,5.037,5.454c-0.011,0.286-0.062,0.559-0.116,0.83L40.663,75.744z"/>
	</g>
	<g>
		<polyline fill="#79CCCA" points="28.348,76.199 23.684,119.303 20.829,74.984 		"/>
		<path fill="#C3996C" d="M28.621,73.805c-0.198,4.045,1.17,7.335,1.412,7.37c0.241,0.034-4.37,0.644-4.718-7.103"/>
		<path fill="#C3996C" d="M25.798,73.916c-0.185,4.158,1.156,7.543,1.392,7.58c0.234,0.037-4.252,0.652-4.607-7.311"/>
		<path fill="#C3996C" d="M23.249,74.11c-0.172,4.056,1.107,7.362,1.332,7.397c0.225,0.037-4.048,0.633-4.394-7.139"/>
		<path fill="#9C3B32" d="M50.037,75.744c0.034-0.274,0.063-0.551,0.052-0.836c-0.115-2.896-2.558-5.152-5.454-5.037L24.65,70.667
			c-2.896,0.115-5.152,2.558-5.037,5.454c0.011,0.286,0.062,0.559,0.116,0.83L50.037,75.744z"/>
	</g>
	<g>
		<polyline fill="#79CCCA" points="84.224,83.911 79.559,127.014 76.705,82.695 		"/>
		<path fill="#C3996C" d="M76.577,80.607c0.359,4.033-0.877,7.377-1.117,7.422c-0.24,0.043,4.391,0.469,4.431-7.285"/>
		<path fill="#C3996C" d="M79.4,80.607c0.351,4.146-0.854,7.582-1.088,7.629c-0.232,0.047,4.274,0.482,4.313-7.488"/>
		<path fill="#C3996C" d="M81.957,80.699c0.333,4.047-0.814,7.4-1.037,7.445s4.069,0.471,4.106-7.309"/>
		<rect x="76.639" y="80.607" fill="#9C3B32" width="8.651" height="2.791"/>
		<path fill="#9C3B32" d="M73.2,28.628v0.04c2.594,0.197,4.393,1.768,4.393,5.343l0.142,25.033h0.034l0.11,19.719h0.015v0.187h2.25
			v-0.019h1.886c2.278,0,4.125,1.868,4.125,4.173c0,0.14-0.022,0.273-0.04,0.408H74.395c-1.486-0.435-2.592-1.983-2.592-3.844
			v-3.094h0.002v-11.53l0,0V40.362h-0.08c-0.301-2.399-1.729-4.221-3.469-4.243l-10.453-0.133v-7.358H73.2z"/>
	</g>
	<g>
		<polyline fill="#79CCCA" points="5.775,84.168 10.441,127.271 13.295,82.952 		"/>
		<path fill="#C3996C" d="M13.423,80.863c-0.359,4.034,0.877,7.377,1.117,7.422c0.24,0.044-4.391,0.47-4.431-7.285"/>
		<path fill="#C3996C" d="M10.6,80.863c-0.351,4.147,0.854,7.583,1.088,7.63c0.232,0.046-4.274,0.482-4.313-7.489"/>
		<path fill="#C3996C" d="M8.043,80.956c-0.333,4.046,0.814,7.4,1.037,7.445s-4.07,0.471-4.107-7.309"/>
		<rect x="4.709" y="80.863" fill="#9C3B32" width="8.652" height="2.792"/>
		<path fill="#9C3B32" d="M16.799,28.885v0.04c-2.593,0.197-4.393,1.768-4.393,5.343L12.266,59.3h-0.034L12.121,79.02h-0.015v0.186
			h-2.25v-0.018H7.971c-2.278,0-4.125,1.867-4.125,4.172c0,0.141,0.023,0.273,0.041,0.408h11.718
			c1.486-0.434,2.592-1.982,2.592-3.843V76.83h-0.002V65.3h0.001V40.619h0.079c0.302-2.399,1.729-4.221,3.469-4.243l10.453-0.133
			v-7.358H16.799z"/>
	</g>
	<path fill="#9C3B32" d="M70.747,63.984c0,6.627-5.952,12-13.296,12H32.708c-7.344,0-13.295-5.373-13.295-12V15.651
		c0-6.627,5.951-12,13.295-12h24.744c7.343,0,13.295,5.373,13.295,12L70.747,63.984L70.747,63.984z"/>
	<ellipse fill="#B6E2E9" cx="45.098" cy="52.551" rx="5.976" ry="6.147"/>
	<path fill="#FFC31A" d="M66.699,46.042c0,5.615-2.535,5.525-9.791,5.525H30.691c-5.558,0-6.859-2.121-7.082-6.216l-0.103-27.203
		c0-5.614,5.881-10.166,13.136-10.166h16.922c7.254,0,13.135,4.552,13.135,10.166V46.042z"/>
	<g>
		<ellipse fill="#E2A925" cx="32.402" cy="29.51" rx="4.72" ry="4.833"/>
		<ellipse fill="#62CBE6" cx="32.402" cy="29.51" rx="3.551" ry="3.783"/>
	</g>
	<g>
		<ellipse fill="#E2A925" cx="57.803" cy="29.51" rx="4.72" ry="4.833"/>
		<ellipse fill="#62CBE6" cx="57.803" cy="29.51" rx="3.551" ry="3.783"/>
	</g>
	<line stroke="#E2A925" stroke-miterlimit="10" x1="34.85" y1="45.343" x2="55.312" y2="45.343"/>
</g>
</svg>
