<?xml version="1.0" encoding="utf-8"?>
<!-- Generator: Adobe Illustrator 16.0.3, SVG Export Plug-In . SVG Version: 6.00 Build 0)  -->
<!DOCTYPE svg PUBLIC "-//W3C//DTD SVG 1.1//EN" "http://www.w3.org/Graphics/SVG/1.1/DTD/svg11.dtd">
<svg version="1.1" id="Layer_1" xmlns="http://www.w3.org/2000/svg" xmlns:xlink="http://www.w3.org/1999/xlink" x="0px" y="0px"
	 width="612px" height="792px" viewBox="0 0 612 792" enable-background="new 0 0 612 792" xml:space="preserve">
<g>
	<path fill="#229F48" d="M79.027,105.763c0.023,0.115,0.932,0.476,2.358,0.753c-2.696-1.32-2.482-3.525-2.45-3.359
		c0.029,0.146,1.403,0.678,3.45,0.964c-3.522-1.257-3.276-4.005-3.241-3.818c0.033,0.182,1.953,0.932,4.629,1.132V90.346h0.002
		V56.498h-0.08c-0.111-0.888-0.379-1.694-0.758-2.362v25.794l0,0c0,4.796-3.125,8.923-7.631,10.845v10.239
		c0,2.205-1.363,4.086-3.291,4.863v0.009h-0.027c-0.6,0.238-1.248,0.378-1.932,0.378c-0.285,0-0.561-0.04-0.833-0.084v-0.294v-0.464
		c-5.114-0.847-4.785-4.103-4.745-3.908c0.022,0.115,0.932,0.476,2.357,0.753c-2.695-1.32-2.482-3.525-2.45-3.359
		c0.029,0.146,1.403,0.678,3.45,0.965c-3.523-1.257-3.276-4.006-3.242-3.819c0.034,0.182,1.953,0.932,4.63,1.132v-5.255H44.898
		c-0.523,0-1.037-0.034-1.545-0.087v5.342c2.676-0.2,4.596-0.95,4.63-1.132c0.034-0.187,0.281,2.563-3.243,3.819
		c2.047-0.287,3.421-0.818,3.451-0.965c0.033-0.166,0.246,2.039-2.45,3.359c1.426-0.277,2.334-0.638,2.357-0.753
		c0.04-0.194,0.369,3.062-4.746,3.908v0.464h-0.001v0.294c-0.272,0.044-0.547,0.084-0.833,0.084c-0.684,0-1.333-0.14-1.932-0.378
		h-0.026v-0.008c-1.928-0.777-3.292-2.658-3.292-4.864V89.749c-3.423-2.172-5.666-5.756-5.666-9.819V53.423
		c-0.395,0.678-0.673,1.503-0.788,2.415h-0.079v33.849h0.001v11.088c2.676-0.2,4.596-0.95,4.63-1.131
		c0.034-0.188,0.281,2.563-3.244,3.818c2.048-0.287,3.422-0.818,3.452-0.965c0.033-0.165,0.246,2.04-2.45,3.359
		c1.426-0.277,2.334-0.638,2.358-0.752c0.034-0.169,0.28,2.229-2.934,3.436c7.642,4.318,16.411,6.777,25.737,6.777
		c8.706,0,16.921-2.153,24.192-5.951C78.734,108.234,78.992,105.586,79.027,105.763z"/>
	<path fill="#229F48" d="M58.288,4.472c-29.649,0-53.685,24.813-53.685,55.422c0,17.489,7.855,33.077,20.112,43.234
		c-0.036-0.411-0.061-0.833-0.061-1.274l0.295-52.368c0-3.575,1.8-5.146,4.393-5.343v-0.04h2.261V31.596c0-6.627,5.952-12,13.295-12
		h7.821c1.25-2.36,3.572-2.149,3.407-2.126c-0.115,0.017-0.482,0.714-0.772,1.813c1.343-2.067,3.544-1.877,3.379-1.854
		c-0.131,0.019-0.578,0.863-0.89,2.168h0.161c1.364-2.192,3.757-1.995,3.582-1.973c-0.13,0.017-0.56,0.782-0.877,1.973h8.933
		c7.344,0,13.295,5.373,13.295,12v13.168h2.232v0.04c2.593,0.197,4.393,1.768,4.393,5.343l0.295,52.367
		c0,0.84-0.072,1.618-0.198,2.342c13.511-10.064,22.313-26.447,22.313-44.961C111.972,29.286,87.937,4.472,58.288,4.472z"/>
</g>
</svg>
