<?xml version="1.0" encoding="utf-8"?>
<!-- Generator: Adobe Illustrator 16.0.3, SVG Export Plug-In . SVG Version: 6.00 Build 0)  -->
<!DOCTYPE svg PUBLIC "-//W3C//DTD SVG 1.1//EN" "http://www.w3.org/Graphics/SVG/1.1/DTD/svg11.dtd">
<svg version="1.1" id="Layer_1" xmlns="http://www.w3.org/2000/svg" xmlns:xlink="http://www.w3.org/1999/xlink" x="0px" y="0px"
	 width="612px" height="792px" viewBox="0 0 612 792" enable-background="new 0 0 612 792" xml:space="preserve">
<path fill="#229F48" d="M59.942,3.753C29.615,3.753,5.03,29.173,5.03,60.53c0,31.356,24.585,56.776,54.912,56.776
	c30.329,0,54.913-25.42,54.913-56.776C114.855,29.173,90.271,3.753,59.942,3.753z M37.797,104.628
	c0.471-0.841,0.393-1.534,0.374-1.441c-0.021,0.1-0.706,0.384-1.816,0.638c-0.053-0.031-0.105-0.063-0.158-0.094
	c2.286-1.33,2.097-3.307,2.066-3.15c-0.029,0.147-1.404,0.679-3.455,0.966c3.527-1.256,3.281-4.007,3.247-3.82
	c-0.034,0.182-1.954,0.932-4.631,1.132V53.921h0.079c0.115-0.91,0.393-1.736,0.787-2.414v26.506c0,4.063,2.242,7.647,5.666,9.818
	v11.266c0,2.898,2.351,5.25,5.25,5.25c0.285,0,0.561-0.039,0.833-0.084v-0.758c5.115-0.847,4.786-4.103,4.747-3.908
	c-0.023,0.115-0.932,0.476-2.357,0.752c2.694-1.319,2.481-3.523,2.449-3.359c-0.029,0.147-1.403,0.679-3.451,0.965
	c3.524-1.256,3.277-4.005,3.243-3.818c-0.034,0.182-1.954,0.932-4.631,1.132v-5.343c0.508,0.054,1.022,0.088,1.546,0.088h24.262
	v5.802c-2.677-0.2-4.596-0.95-4.63-1.132c-0.034-0.187-0.281,2.562,3.242,3.818c-2.047-0.287-3.421-0.818-3.45-0.965
	c-0.032-0.164-0.245,2.04,2.45,3.359c-1.426-0.276-2.335-0.637-2.358-0.752c-0.039-0.194-0.368,3.061,4.746,3.907v0.759
	c0.271,0.044,0.547,0.084,0.833,0.084c2.899,0,5.25-2.352,5.25-5.25v-10.76c4.54-1.909,7.693-6.053,7.693-10.871h0.001V52.219
	c0.379,0.668,0.646,1.475,0.758,2.362h0.079v44.937c-2.677-0.2-4.597-0.95-4.631-1.132c-0.034-0.187-0.281,2.563,3.242,3.818
	c-2.047-0.286-3.421-0.817-3.45-0.965c-0.029-0.143-0.191,1.505,1.536,2.805c-0.138,0.078-0.275,0.159-0.415,0.236
	c-0.638-0.188-1.015-0.36-1.029-0.434c-0.015-0.072-0.067,0.331,0.13,0.908c-6.571,3.472-14.012,5.442-21.902,5.442
	C51.955,110.197,44.428,108.179,37.797,104.628z M92.524,97.088L92.25,48.231c0-3.576-1.801-5.146-4.393-5.344v-0.039h-2.232V29.68
	c0-6.627-5.952-12-13.295-12h-8.934c0.317-1.19,0.747-1.955,0.877-1.973c0.175-0.022-2.217-0.22-3.581,1.973H60.53
	c0.312-1.305,0.76-2.148,0.891-2.168c0.165-0.022-2.035-0.213-3.379,1.854c0.29-1.098,0.657-1.795,0.772-1.812
	c0.165-0.023-2.157-0.234-3.407,2.126h-7.821c-7.344,0-13.295,5.373-13.295,12v12.507h-2.262v0.041
	c-2.593,0.196-4.393,1.768-4.393,5.342l-0.279,49.516c-9.563-9.077-15.559-22.092-15.559-36.554
	c0-27.431,21.555-49.667,48.144-49.667c26.59,0,48.145,22.236,48.145,49.667C108.086,74.995,102.088,88.011,92.524,97.088z"/>
</svg>
