<?xml version="1.0" encoding="utf-8"?>
<!-- Generator: Adobe Illustrator 16.0.3, SVG Export Plug-In . SVG Version: 6.00 Build 0)  -->
<!DOCTYPE svg PUBLIC "-//W3C//DTD SVG 1.1//EN" "http://www.w3.org/Graphics/SVG/1.1/DTD/svg11.dtd">
<svg version="1.1" id="Layer_1" xmlns="http://www.w3.org/2000/svg" xmlns:xlink="http://www.w3.org/1999/xlink" x="0px" y="0px"
	 width="612px" height="792px" viewBox="0 0 612 792" enable-background="new 0 0 612 792" xml:space="preserve">
<g>
	<g>
		<g>
			<path fill="#C3996C" d="M7.668,142.765c4.034,0.359,7.377-0.877,7.422-1.117s0.471,4.393-7.285,4.432"/>
			<path fill="#C3996C" d="M7.668,145.589c4.146,0.35,7.583-0.854,7.63-1.088c0.046-0.232,0.483,4.275-7.489,4.313"/>
			<path fill="#C3996C" d="M7.762,148.146c4.045,0.332,7.399-0.814,7.444-1.037s0.472,4.07-7.308,4.107"/>
		</g>
		<path fill="#764E2A" d="M9.626,151.858c0.284,0,0.562-0.063,0.833-0.156V97.843h0.079c0.302-2.4,1.729-4.223,3.468-4.244
			l10.454-0.131v-7.359H9.065v0.041c-2.594,0.197-4.394,1.768-4.394,5.342L4.377,143.86C4.376,148.813,6.727,151.858,9.626,151.858z
			"/>
	</g>
	<g>
		<g>
			<path fill="#C3996C" d="M22.282,139.062c4.033,0.359,7.377-0.877,7.422-1.119c0.044-0.238,0.47,4.393-7.285,4.434"/>
			<path fill="#C3996C" d="M22.282,141.886c4.146,0.35,7.583-0.855,7.63-1.088c0.046-0.232,0.483,4.273-7.489,4.313"/>
			<path fill="#C3996C" d="M22.375,144.442c4.046,0.332,7.399-0.814,7.444-1.037c0.046-0.223,0.472,4.07-7.307,4.105"/>
		</g>
		<path fill="#764E2A" d="M25.074,117.739c-0.272-0.045-0.548-0.086-0.833-0.086c-2.898,0-5.25,2.352-5.25,5.25v20.002
			c0,2.898,2.352,5.25,5.25,5.25c0.285,0,0.561-0.041,0.833-0.084V117.739z"/>
	</g>
	<g>
		<g>
			<path fill="#C3996C" d="M53.672,138.515c-4.033,0.359-7.377-0.877-7.422-1.117c-0.044-0.24-0.47,4.393,7.285,4.432"/>
			<path fill="#C3996C" d="M53.672,141.339c-4.146,0.35-7.583-0.854-7.63-1.088c-0.046-0.232-0.483,4.275,7.489,4.313"/>
			<path fill="#C3996C" d="M53.58,143.896c-4.046,0.332-7.399-0.814-7.444-1.037c-0.046-0.223-0.472,4.07,7.307,4.107"/>
		</g>
		<path fill="#764E2A" d="M50.881,117.192c0.273-0.045,0.549-0.084,0.833-0.084c2.899,0,5.25,2.35,5.25,5.25v20
			c0,2.898-2.351,5.25-5.25,5.25c-0.286,0-0.561-0.039-0.833-0.084V117.192z"/>
	</g>
	<rect x="50.799" y="5.077" fill="#F3EDED" width="14.508" height="36.007"/>
	<g>
		<g>
			<path fill="#C3996C" d="M67.538,37.901c-4.034-0.359-7.377,0.877-7.422,1.117s-0.471-4.393,7.285-4.432"/>
			<path fill="#C3996C" d="M67.538,35.077c-4.147-0.352-7.584,0.854-7.631,1.088c-0.045,0.232-0.482-4.275,7.49-4.314"/>
			<path fill="#C3996C" d="M67.444,32.52c-4.045-0.334-7.399,0.814-7.444,1.037c-0.046,0.223-0.472-4.07,7.308-4.107"/>
		</g>
		<path fill="#764E2A" d="M65.579,28.807c-0.283,0-0.562,0.063-0.832,0.156v53.86h-0.079c-0.302,2.398-1.729,4.221-3.468,4.244
			L50.745,87.2v7.357h15.396v-0.041c2.594-0.195,4.393-1.768,4.393-5.342l0.295-52.368C70.829,31.85,68.479,28.807,65.579,28.807z"
			/>
	</g>
	<path fill="#8B5F3D" d="M11.297,121.274c0,6.627,5.952,12,13.295,12h24.743c7.343,0,13.295-5.373,13.295-12V72.94
		c0-6.627-5.952-12-13.295-12H24.592c-7.344,0-13.296,5.373-13.296,12L11.297,121.274L11.297,121.274z"/>
	<g>
		<path fill="#8B5F3D" d="M33.833,64.699c0.323-3.126-0.945-5.699-1.186-5.731c-0.239-0.031,4.389-0.414,4.498,5.588"/>
		<path fill="#8B5F3D" d="M36.657,64.666c0.313-3.213-0.924-5.858-1.156-5.894c-0.234-0.031,4.27-0.422,4.379,5.748"/>
		<path fill="#8B5F3D" d="M39.211,64.565c0.295-3.135-0.881-5.719-1.104-5.75c-0.223-0.032,4.064-0.412,4.172,5.607"/>
	</g>
	<path fill="#CCB7A7" d="M11.296,80.108l0.299-0.308l49.12,47.656c-0.985,1.473-2.301,2.746-3.869,3.717l-45.55-44.193V80.108z"/>
	<path fill="#CCB7A7" d="M56.682,145.138c0,4.764,3.861,8.625,8.625,8.625l0,0c4.764,0,8.625-3.861,8.625-8.625v-18.406
		c0-4.764-3.861-8.625-8.625-8.625l0,0c-4.764,0-8.625,3.861-8.625,8.625V145.138z"/>
	<rect x="52.492" y="36.902" fill="#35489E" width="3.579" height="3.75"/>
	<g>
		<path fill="#D2D3D4" d="M15.344,103.331c0,5.615,2.536,5.525,9.791,5.525h26.219c5.557,0,6.858-2.121,7.082-6.215l0.102-27.204
			c0-5.614-5.881-10.166-13.135-10.166H28.479c-7.254,0-13.135,4.552-13.135,10.166V103.331z"/>
		<g>
			<path fill="#A8AAAD" d="M28.424,82.532c-2.169-2.166-5.482-2.365-7.402-0.443l-5.678,5.686v12.895
				c1.491,0.215,2.986-0.174,4.053-1.24l9.48-9.494C30.796,88.013,30.594,84.698,28.424,82.532z"/>
			<g>
				<ellipse fill="#C3996C" cx="24.241" cy="86.801" rx="4.719" ry="4.833"/>
				<ellipse fill="#595A5C" cx="24.241" cy="86.8" rx="3.551" ry="3.783"/>
			</g>
		</g>
		<g>
			<path fill="#A8AAAD" d="M45.458,82.532c2.169-2.166,5.482-2.365,7.402-0.443l5.678,5.686v12.895
				c-1.491,0.215-2.986-0.174-4.053-1.24l-9.48-9.494C43.085,88.013,43.289,84.698,45.458,82.532z"/>
			<g>
				<ellipse fill="#C3996C" cx="49.641" cy="86.801" rx="4.719" ry="4.833"/>
				<ellipse fill="#595A5C" cx="49.641" cy="86.8" rx="3.551" ry="3.783"/>
			</g>
		</g>
		<path fill="#595A5C" d="M33.733,96.94c0,1.137,0.843,2.059,1.881,2.059h1.82c1.039,0,1.881-0.922,1.881-2.059l0,0
			c0-1.135-0.842-2.057-1.881-2.057h-1.82C34.576,94.884,33.733,95.806,33.733,96.94L33.733,96.94z"/>
		<path fill="#595A5C" d="M45.531,99.997c0.044,0.188,0.073,0.383,0.073,0.592c0,1.045-0.607,1.891-1.357,1.891H29.637
			c-0.75,0-1.358-0.846-1.358-1.891c0-0.209,0.03-0.404,0.073-0.592H45.531z"/>
	</g>
	<line fill="none" stroke="#856228" stroke-miterlimit="10" x1="73.932" y1="135.935" x2="63.817" y2="126.884"/>
	<g>
		<path fill="#FFFFFF" d="M55.553,39.432c0.003,0.001,0.013,0.029,0.021,0.074c-0.036-0.084-0.098-0.079-0.093-0.077
			c0.004,0.001,0.018,0.043,0.025,0.107c-0.033-0.109-0.11-0.102-0.105-0.101c0.006,0.001,0.025,0.061,0.03,0.144l-0.31-0.003v0
			l-0.942-0.01v-0.003c-0.025-0.003-0.048-0.012-0.066-0.024l0.72,0.007l0,0c0.134,0.001,0.249-0.094,0.304-0.233l0.286,0.002
			c0.062,0,0.114-0.041,0.137-0.1l0,0v-0.001c0.007-0.019,0.011-0.038,0.011-0.06c0-0.009,0-0.017-0.002-0.025H55.56l-0.013,0
			c-0.023-0.159-0.114-0.149-0.107-0.148c0.003,0.001,0.013,0.029,0.02,0.074c-0.035-0.084-0.098-0.078-0.093-0.077
			s0.019,0.043,0.026,0.107c-0.034-0.109-0.11-0.102-0.105-0.102c0.004,0.001,0.024,0.061,0.029,0.144l-0.146-0.001l0.007-0.753
			c0-0.017-0.001-0.032-0.002-0.048l0.149,0.001c-0.007,0.083-0.028,0.142-0.033,0.144c-0.005,0,0.071,0.009,0.107-0.1
			c-0.01,0.063-0.024,0.106-0.028,0.107c-0.005,0.001,0.057,0.008,0.095-0.076c-0.009,0.044-0.019,0.072-0.021,0.073
			c-0.006,0.001,0.085,0.012,0.109-0.146h0.014l0,0h0.008c0.002-0.008,0.003-0.017,0.003-0.025c0-0.021-0.003-0.042-0.01-0.06
			v-0.001l0,0c-0.021-0.06-0.074-0.103-0.135-0.104l-0.314-0.002c-0.06-0.107-0.158-0.177-0.271-0.178l-0.739-0.007
			c0.019-0.012,0.042-0.021,0.068-0.024v-0.002l0.942,0.009l0,0l0.31,0.003c-0.007,0.083-0.027,0.142-0.033,0.144
			c-0.005,0,0.072,0.009,0.108-0.1c-0.01,0.063-0.024,0.106-0.029,0.107c-0.004,0,0.058,0.007,0.095-0.076
			c-0.009,0.044-0.019,0.072-0.021,0.073c-0.004,0.001,0.063,0.009,0.097-0.09c0.118,0.238,0.184,0.51,0.181,0.799
			c-0.002,0.27-0.065,0.523-0.173,0.748C55.623,39.424,55.548,39.431,55.553,39.432z"/>
		<path fill="#FFFFFF" d="M52.737,38.762c0.009-0.918,0.708-1.656,1.561-1.647c0.488,0.005,0.92,0.253,1.199,0.635
			c-0.012-0.001-0.023-0.002-0.035-0.002l-1.46-0.005c-0.1-0.001-0.144,0.054-0.15,0.134H53.85l-0.001,0.07L53.5,37.943
			c-0.185-0.002-0.336,0.181-0.339,0.408l-0.002,0.243c-0.066,0.038-0.061,0.11-0.06,0.105c0-0.003,0.02-0.015,0.05-0.023
			c-0.058,0.041-0.053,0.109-0.052,0.104c0-0.004,0.023-0.018,0.06-0.027v0.005c-0.061,0.042-0.057,0.116-0.056,0.11
			c0.001-0.004,0.022-0.017,0.056-0.026l-0.003,0.276c-0.002,0.228,0.146,0.413,0.33,0.415l0.367,0.003v0.07l0,0
			c0.005,0.08,0.048,0.136,0.148,0.137l1.459,0.024c0.023,0,0.045-0.002,0.065-0.006c-0.284,0.416-0.744,0.684-1.26,0.679
			C53.412,40.432,52.727,39.681,52.737,38.762z"/>
	</g>
</g>
</svg>
