<?xml version="1.0" encoding="utf-8"?>
<!-- Generator: Adobe Illustrator 16.0.3, SVG Export Plug-In . SVG Version: 6.00 Build 0)  -->
<!DOCTYPE svg PUBLIC "-//W3C//DTD SVG 1.1//EN" "http://www.w3.org/Graphics/SVG/1.1/DTD/svg11.dtd">
<svg version="1.1" id="Layer_1" xmlns="http://www.w3.org/2000/svg" xmlns:xlink="http://www.w3.org/1999/xlink" x="0px" y="0px"
	 width="612px" height="792px" viewBox="0 0 612 792" enable-background="new 0 0 612 792" xml:space="preserve">
<g>
	<g>
		<g>
			<path fill="#C3996C" d="M66.877,87.335c-4.034,0.358-7.377-0.878-7.422-1.118c-0.044-0.24-0.47,4.393,7.284,4.432"/>
			<path fill="#C3996C" d="M66.877,90.159c-4.147,0.351-7.583-0.854-7.63-1.088c-0.047-0.232-0.483,4.275,7.488,4.313"/>
			<path fill="#C3996C" d="M66.784,92.715c-4.047,0.333-7.4-0.814-7.445-1.037s-0.471,4.07,7.309,4.107"/>
		</g>
		<path fill="#764E2A" d="M64.919,96.428c-0.284,0-0.563-0.063-0.833-0.156V42.413h-0.079c-0.303-2.398-1.729-4.221-3.468-4.243
			l-10.454-0.132V30.68h15.396v0.039c2.592,0.197,4.393,1.768,4.393,5.344l0.294,52.367C70.169,93.384,67.817,96.428,64.919,96.428z
			"/>
	</g>
	<g>
		<g>
			<path fill="#C3996C" d="M52.264,83.631c-4.034,0.359-7.377-0.877-7.422-1.117c-0.044-0.24-0.47,4.392,7.285,4.432"/>
			<path fill="#C3996C" d="M52.264,86.456c-4.147,0.35-7.583-0.854-7.63-1.088c-0.046-0.232-0.482,4.274,7.489,4.313"/>
			<path fill="#C3996C" d="M52.171,89.012c-4.046,0.332-7.4-0.814-7.445-1.037s-0.471,4.07,7.309,4.106"/>
		</g>
		<path fill="#764E2A" d="M49.472,62.309c0.273-0.045,0.549-0.084,0.833-0.084c2.899,0,5.25,2.351,5.25,5.25v20
			c0,2.898-2.351,5.25-5.25,5.25c-0.286,0-0.562-0.04-0.833-0.084V62.309z"/>
	</g>
	<g>
		<g>
			<path fill="#C3996C" d="M20.873,83.085c4.034,0.358,7.377-0.878,7.422-1.118c0.044-0.24,0.47,4.393-7.285,4.432"/>
			<path fill="#C3996C" d="M20.873,85.909c4.147,0.351,7.583-0.854,7.63-1.088c0.046-0.232,0.483,4.275-7.489,4.313"/>
			<path fill="#C3996C" d="M20.966,88.465c4.046,0.333,7.4-0.814,7.445-1.037c0.045-0.223,0.471,4.07-7.308,4.107"/>
		</g>
		<path fill="#764E2A" d="M23.664,61.762c-0.273-0.044-0.548-0.084-0.833-0.084c-2.899,0-5.25,2.352-5.25,5.25v20
			c0,2.898,2.351,5.25,5.25,5.25c0.286,0,0.561-0.039,0.833-0.084V61.762z"/>
	</g>
	<g>
		<g>
			<path fill="#C3996C" d="M8.258,86.675c4.034,0.358,7.377-0.878,7.422-1.118c0.044-0.24,0.47,4.393-7.285,4.432"/>
			<path fill="#C3996C" d="M8.258,89.5c4.147,0.351,7.583-0.854,7.63-1.088c0.046-0.233,0.483,4.274-7.489,4.313"/>
			<path fill="#C3996C" d="M8.351,92.055c4.046,0.334,7.4-0.814,7.445-1.037c0.045-0.223,0.471,4.07-7.308,4.107"/>
		</g>
		<path fill="#764E2A" d="M10.216,95.768c0.284,0,0.562-0.063,0.833-0.156V41.752h0.079c0.302-2.398,1.729-4.221,3.468-4.243
			l10.454-0.133v-7.358H9.654v0.041c-2.593,0.196-4.393,1.768-4.393,5.342L4.966,87.768C4.966,92.725,7.316,95.768,10.216,95.768z"
			/>
	</g>
	<path fill="#8B5F3D" d="M63.248,65.844c0,6.627-5.952,12-13.296,12H25.21c-7.343,0-13.295-5.373-13.295-12V17.511
		c0-6.627,5.952-12,13.295-12h24.744c7.343,0,13.295,5.373,13.295,12L63.248,65.844L63.248,65.844z"/>
	<g>
		<path fill="#D2D3D4" d="M59.2,47.903c0,5.615-2.535,5.524-9.791,5.524H23.192c-5.557,0-6.859-2.12-7.082-6.216l-0.102-27.203
			c0-5.613,5.881-10.166,13.135-10.166h16.922c7.254,0,13.135,4.553,13.135,10.166V47.903z"/>
		<g>
			<path fill="#A8AAAD" d="M46.12,27.104c2.17-2.166,5.484-2.365,7.402-0.445l5.678,5.687v12.896
				c-1.49,0.214-2.985-0.176-4.051-1.242l-9.481-9.494C43.749,32.583,43.95,29.27,46.12,27.104z"/>
			<g>
				<ellipse fill="#C3996C" cx="50.305" cy="31.371" rx="4.72" ry="4.833"/>
				<ellipse fill="#595A5C" cx="50.305" cy="31.37" rx="3.552" ry="3.783"/>
			</g>
		</g>
		<g>
			<path fill="#A8AAAD" d="M29.088,27.104c-2.169-2.166-5.483-2.365-7.402-0.445l-5.678,5.687v12.896
				c1.491,0.214,2.986-0.176,4.052-1.242l9.481-9.494C31.46,32.583,31.257,29.27,29.088,27.104z"/>
			<g>
				<ellipse fill="#C3996C" cx="24.904" cy="31.371" rx="4.719" ry="4.833"/>
				<ellipse fill="#595A5C" cx="24.904" cy="31.37" rx="3.551" ry="3.783"/>
			</g>
		</g>
		<path fill="#595A5C" d="M40.813,41.511c0,1.136-0.844,2.058-1.882,2.058h-1.821c-1.039,0-1.881-0.922-1.881-2.058l0,0
			c0-1.136,0.843-2.057,1.881-2.057h1.821C39.97,39.455,40.813,40.375,40.813,41.511L40.813,41.511z"/>
		<path fill="#595A5C" d="M29.015,44.569c-0.044,0.187-0.074,0.383-0.074,0.59c0,1.045,0.608,1.892,1.358,1.892h14.61
			c0.75,0,1.357-0.847,1.357-1.892c0-0.207-0.029-0.403-0.074-0.59H29.015z"/>
	</g>
	<g>
		<path fill="#8B5F3D" d="M40.713,9.27c-0.323-3.127,0.944-5.699,1.185-5.731c0.24-0.031-4.388-0.415-4.497,5.587"/>
		<path fill="#8B5F3D" d="M37.889,9.237c-0.313-3.213,0.923-5.859,1.156-5.894c0.233-0.032-4.27-0.423-4.379,5.747"/>
		<path fill="#8B5F3D" d="M35.334,9.135C35.039,6,36.215,3.417,36.438,3.385c0.223-0.031-4.065-0.412-4.172,5.607"/>
	</g>
</g>
</svg>
