<?xml version="1.0" encoding="utf-8"?>
<!-- Generator: Adobe Illustrator 16.0.3, SVG Export Plug-In . SVG Version: 6.00 Build 0)  -->
<!DOCTYPE svg PUBLIC "-//W3C//DTD SVG 1.1//EN" "http://www.w3.org/Graphics/SVG/1.1/DTD/svg11.dtd">
<svg version="1.1" id="Layer_1" xmlns="http://www.w3.org/2000/svg" xmlns:xlink="http://www.w3.org/1999/xlink" x="0px" y="0px"
	 width="612px" height="792px" viewBox="0 0 612 792" enable-background="new 0 0 612 792" xml:space="preserve">
<g>
	<g>
		<path fill="#646567" d="M180.877,26.403l-4.065-2.208l-33.729,63.102c-0.002-0.001-0.004-0.003-0.005-0.004l-5.921,10.668
			c0.658,0.281,1.371,0.441,2.119,0.441c1.619,0,3.341-0.466,4.135-1.884L180.877,26.403z"/>
		<polygon fill="#676869" points="190.776,7.81 187.178,5.693 177.083,24.275 180.681,26.391 		"/>
		<polygon fill="#555555" points="181.681,27.71 175.687,24.144 176.228,23.16 182.222,26.726 		"/>
	</g>
	<g>
		<path fill="#646567" d="M136.503,25.989l4.065-2.208l33.729,63.102c0.002-0.001,0.004-0.003,0.005-0.004l5.921,10.668
			c-0.658,0.281-1.371,0.441-2.119,0.441c-1.619,0-3.341-0.466-4.135-1.884L136.503,25.989z"/>
	</g>
	<g>
		<polygon fill="#676869" points="105.63,52.85 105.88,48.683 84.741,48.136 84.491,52.303 		"/>
		<polygon fill="#555555" points="83.769,53.794 84.223,46.833 85.346,46.868 84.892,53.828 		"/>
		<path fill="#ABACAE" d="M84.209,52.268l0.183-3.874l-61.66,0.097c0-0.003,0-0.004,0.001-0.005l-10.507-0.145
			c0.029,0.597,0.174,1.186,0.456,1.738c0.61,1.194,1.619,2.281,3.017,2.304L84.209,52.268z"/>
	</g>
	<g>
		<g>
			<path fill="#C3996C" d="M142.022,101.513c4.034,0.358,7.377-0.879,7.422-1.119c0.044-0.239,0.47,4.393-7.285,4.433"/>
			<path fill="#C3996C" d="M142.022,104.336c4.147,0.351,7.583-0.854,7.63-1.088c0.046-0.233,0.482,4.274-7.489,4.313"/>
			<path fill="#C3996C" d="M142.115,106.892c4.046,0.334,7.4-0.813,7.445-1.037c0.045-0.223,0.471,4.07-7.309,4.107"/>
		</g>
		<path fill="#5C5C5C" d="M144.813,80.19c-0.273-0.044-0.548-0.085-0.833-0.085c-2.899,0-5.25,2.352-5.25,5.25v20
			c0,2.899,2.351,5.25,5.25,5.25c0.285,0,0.561-0.039,0.833-0.084V80.19z"/>
	</g>
	<g>
		<g>
			<path fill="#C3996C" d="M100.521,46.615c-0.332,4.037,0.927,7.37,1.167,7.414c0.24,0.043-4.389,0.498-4.48-7.256"/>
			<path fill="#C3996C" d="M97.697,46.633c-0.323,4.149,0.905,7.577,1.139,7.622s-4.271,0.512-4.363-7.46"/>
			<path fill="#C3996C" d="M95.141,46.743c-0.307,4.048,0.863,7.396,1.086,7.438c0.224,0.043-4.066,0.497-4.155-7.281"/>
		</g>
		<path fill="#5C5C5C" d="M91.441,48.632c0.002,0.283,0.066,0.562,0.161,0.832l53.859-0.355v0.078
			c2.401,0.287,4.232,1.701,4.267,3.44l0.201,10.452l7.357-0.049l-0.102-15.396l-0.039,0.001c-0.215-2.592-1.797-4.381-5.372-4.358
			L99.406,43.33C94.45,43.363,91.421,45.733,91.441,48.632z"/>
	</g>
	<g>
		<g>
			<path fill="#C3996C" d="M188.504,105.103c-4.034,0.358-7.377-0.879-7.422-1.118c-0.044-0.24-0.47,4.392,7.285,4.432"/>
			<path fill="#C3996C" d="M188.504,107.927c-4.147,0.35-7.583-0.855-7.63-1.088c-0.046-0.234-0.482,4.273,7.489,4.313"/>
			<path fill="#C3996C" d="M188.412,110.483c-4.046,0.333-7.4-0.814-7.445-1.037c-0.045-0.224-0.471,4.069,7.309,4.106"/>
		</g>
		<path fill="#5C5C5C" d="M186.546,114.196c-0.283,0-0.563-0.063-0.833-0.156v-53.86h-0.079c-0.302-2.398-1.729-4.221-3.468-4.242
			l-10.454-0.133v-7.358h15.396v0.04c2.593,0.197,4.393,1.768,4.393,5.343l0.295,52.367
			C191.796,111.152,189.446,114.196,186.546,114.196z"/>
	</g>
	<g>
		<g>
			<path fill="#C3996C" d="M175.889,103.041c-4.034,0.359-7.377-0.877-7.422-1.117c-0.044-0.24-0.47,4.392,7.285,4.432"/>
			<path fill="#C3996C" d="M175.889,105.865c-4.147,0.35-7.583-0.854-7.63-1.088c-0.046-0.232-0.482,4.274,7.489,4.313"/>
			<path fill="#C3996C" d="M175.796,108.421c-4.046,0.332-7.4-0.814-7.445-1.037s-0.471,4.07,7.309,4.106"/>
		</g>
		<path fill="#5C5C5C" d="M173.098,81.718c0.273-0.045,0.548-0.084,0.833-0.084c2.899,0,5.25,2.351,5.25,5.25v20
			c0,2.898-2.351,5.25-5.25,5.25c-0.285,0-0.561-0.04-0.833-0.084V81.718z"/>
	</g>
	<path fill="#555555" d="M184.397,84.271c0,6.628-5.952,12-13.296,12h-24.742c-7.344,0-13.295-5.372-13.295-12V35.939
		c0-6.627,5.951-12,13.295-12h24.744c7.343,0,13.295,5.373,13.295,12L184.397,84.271L184.397,84.271z"/>
	<g>
		<path fill="#D2D3D4" d="M180.349,66.33c0,5.615-2.535,5.525-9.791,5.525h-26.217c-5.558,0-6.859-2.121-7.082-6.217l-0.103-27.203
			c0-5.613,5.881-10.166,13.136-10.166h16.922c7.254,0,13.135,4.553,13.135,10.166V66.33z"/>
		<g>
			<path fill="#A8AAAD" d="M167.269,45.531c2.17-2.166,5.484-2.365,7.402-0.444l5.678,5.687v12.895
				c-1.49,0.215-2.985-0.175-4.051-1.242l-9.481-9.494C164.898,51.011,165.099,47.697,167.269,45.531z"/>
			<g>
				<ellipse fill="#C3996C" cx="171.454" cy="49.797" rx="4.72" ry="4.833"/>
				<ellipse fill="#595A5C" cx="171.454" cy="49.798" rx="3.552" ry="3.783"/>
			</g>
		</g>
		<g>
			<path fill="#A8AAAD" d="M150.237,45.531c-2.169-2.166-5.483-2.365-7.401-0.444l-5.679,5.687v12.895
				c1.491,0.215,2.985-0.175,4.052-1.242l9.481-9.494C152.609,51.011,152.406,47.697,150.237,45.531z"/>
			<g>
				<ellipse fill="#C3996C" cx="146.052" cy="49.797" rx="4.72" ry="4.833"/>
				<ellipse fill="#595A5C" cx="146.052" cy="49.798" rx="3.551" ry="3.783"/>
			</g>
		</g>
		<path fill="#595A5C" d="M161.962,59.939c0,1.136-0.844,2.058-1.882,2.058h-1.821c-1.039,0-1.881-0.922-1.881-2.058l0,0
			c0-1.137,0.844-2.057,1.881-2.057h1.821C161.119,57.882,161.962,58.802,161.962,59.939L161.962,59.939z"/>
		<path fill="#595A5C" d="M150.164,62.996c-0.044,0.188-0.074,0.383-0.074,0.591c0,1.044,0.608,1.892,1.358,1.892h14.61
			c0.75,0,1.357-0.848,1.357-1.892c0-0.208-0.029-0.403-0.074-0.591H150.164z"/>
	</g>
	<g>
		<path fill="#555555" d="M161.862,27.697c-0.323-3.126,0.944-5.699,1.185-5.73s-4.388-0.416-4.496,5.586"/>
		<path fill="#555555" d="M159.038,27.664c-0.313-3.213,0.923-5.859,1.156-5.893c0.233-0.032-4.271-0.424-4.379,5.746"/>
		<path fill="#555555" d="M156.483,27.562c-0.295-3.135,0.881-5.717,1.104-5.75c0.223-0.031-4.065-0.411-4.173,5.608"/>
	</g>
	<path fill="#595A5C" d="M136.954,52.91v11.218c0.032,0.005,0.064,0.005,0.097,0.009l0.008,1.963
		c0.226,4.095,1.549,6.215,7.198,6.215h26.647c7.375,0,9.952,0.091,9.952-5.524v-2.662V52.91H136.954z"/>
	<path fill="#595A5C" d="M167.505,27.974h-17.2c-7.374,0-13.352,4.552-13.352,10.166l0.029,7.875h43.873V38.14
		C180.856,32.526,174.878,27.974,167.505,27.974z"/>
	<rect x="133.064" y="81.164" fill="#961A1E" width="51.334" height="3.055"/>
</g>
</svg>
