<?xml version="1.0" encoding="utf-8"?>
<!-- Generator: Adobe Illustrator 16.0.3, SVG Export Plug-In . SVG Version: 6.00 Build 0)  -->
<!DOCTYPE svg PUBLIC "-//W3C//DTD SVG 1.1//EN" "http://www.w3.org/Graphics/SVG/1.1/DTD/svg11.dtd">
<svg version="1.1" id="Layer_1" xmlns="http://www.w3.org/2000/svg" xmlns:xlink="http://www.w3.org/1999/xlink" x="0px" y="0px"
	 width="612px" height="792px" viewBox="0 0 612 792" enable-background="new 0 0 612 792" xml:space="preserve">
<g>
	<g>
		<path fill="#4157A7" d="M63.651,103.364c28.172,0,51.125,3.868,52.217,8.711h7.318c0-7.545-26.858-13.661-59.992-13.661
			c-33.133,0-59.991,6.116-59.991,13.661h8.231C12.526,107.232,35.479,103.364,63.651,103.364z"/>
		<g>
			<path fill="#764E2A" d="M28.002,122.363h5.958l-0.908-4.555l0.078-0.016c-0.174-2.411,0.869-4.477,2.57-4.839l10.227-2.175
				l-1.439-7.217l-15.099,3.012l0.008,0.04c-2.504,0.699-3.962,2.592-3.263,6.098L28.002,122.363z"/>
			<path fill="#764E2A" d="M80.886,104.616c1.71-0.318,3.465,1.19,4.23,3.483l0.078-0.016l2.848,14.279h6.028l-4.441-21.639
				c-0.7-3.507-2.772-4.694-5.354-4.381l-0.007-0.038l-15.1,3.011l1.438,7.215L80.886,104.616z"/>
			<path fill="#8B5F3D" d="M34.844,122.363h52.345l-7.686-38.536c-1.296-6.499-8.184-10.604-15.385-9.168l-24.266,4.839
				c-7.202,1.436-11.988,7.869-10.691,14.368L34.844,122.363z"/>
			<path fill="#D2D3D4" d="M39.083,122.173c0.017,0.065,0.035,0.126,0.053,0.19h30.773l3.046-0.607
				c7.115-1.419,9.619-1.825,8.521-7.332l-5.455-27.356c-1.099-5.505-7.756-8.819-14.87-7.4l-16.595,3.309
				c-7.114,1.419-11.991,7.034-10.894,12.539L39.083,122.173z"/>
			<g>
				<path fill="#A8AAAD" d="M64.581,96.584c1.705-2.548,4.916-3.392,7.173-1.884l6.68,4.466l2.522,12.646
					c-1.42,0.502-2.963,0.412-4.216-0.426l-11.155-7.456C63.327,102.422,62.877,99.133,64.581,96.584z"/>
				<g>
					
						<ellipse transform="matrix(-0.1956 -0.9807 0.9807 -0.1956 -14.9032 187.677)" fill="#C3996C" cx="69.52" cy="99.951" rx="4.833" ry="4.72"/>
					
						<ellipse transform="matrix(-0.1956 -0.9807 0.9807 -0.1956 -14.9048 187.6735)" fill="#595A5C" cx="69.519" cy="99.95" rx="3.783" ry="3.552"/>
				</g>
			</g>
			<g>
				<path fill="#A8AAAD" d="M47.878,99.915c-2.551-1.7-5.84-1.247-7.346,1.011l-4.457,6.688l2.522,12.646
					c1.504-0.082,2.893-0.756,3.73-2.011l7.441-11.165C51.275,104.825,50.429,101.615,47.878,99.915z"/>
				<g>
					
						<ellipse transform="matrix(-0.1956 -0.9807 0.9807 -0.1956 -49.5576 169.1853)" fill="#C3996C" cx="44.608" cy="104.917" rx="4.833" ry="4.72"/>
					
						<ellipse transform="matrix(-0.1956 -0.9807 0.9807 -0.1956 -49.5585 169.1837)" fill="#595A5C" cx="44.609" cy="104.917" rx="3.783" ry="3.55"/>
				</g>
			</g>
			<path fill="#595A5C" d="M62.194,111.751c0.223,1.114-0.425,2.184-1.442,2.386l-1.786,0.356c-1.02,0.203-2.025-0.536-2.247-1.65
				l0,0c-0.223-1.113,0.425-2.182,1.442-2.384l1.786-0.356C60.965,109.899,61.973,110.638,62.194,111.751L62.194,111.751z"/>
			<path fill="#595A5C" d="M51.222,117.058c-0.007,0.191,0.002,0.39,0.043,0.593c0.204,1.024,0.966,1.736,1.701,1.589l14.329-2.856
				c0.735-0.147,1.165-1.097,0.961-2.121c-0.04-0.203-0.107-0.39-0.188-0.563L51.222,117.058z"/>
		</g>
		<g>
			<path fill="#8B5F3D" d="M55.791,80.152c-0.929-3.004-0.188-5.774,0.041-5.853c0.229-0.077-4.385,0.451-3.317,6.358"/>
			<path fill="#8B5F3D" d="M53.015,80.672c-0.936-3.09-0.241-5.927-0.019-6.006c0.223-0.077-4.271,0.421-3.171,6.492"/>
			<path fill="#8B5F3D" d="M50.489,81.072c-0.902-3.017-0.254-5.78-0.041-5.855c0.212-0.074-4.067,0.392-2.996,6.315"/>
		</g>
		<path fill="#4157A7" d="M63.194,125.735c33.134,0,59.992-6.116,59.992-13.66h-7.318c0.027,0.12,0.053,0.239,0.053,0.36
			c0,5.01-23.401,9.07-52.27,9.07s-52.27-4.061-52.27-9.07c0-0.121,0.025-0.24,0.053-0.36H3.203
			C3.203,119.619,30.062,125.735,63.194,125.735z"/>
	</g>
	<g>
		<g>
			<path fill="#F68A1F" d="M116.054,17.946c0.004,0.046,0.021,0.092,0.021,0.138c0,5.01-23.401,9.07-52.27,9.07
				s-52.27-4.061-52.27-9.07c0-0.046,0.017-0.092,0.021-0.138H3.381c0.524,7.44,27.162,13.438,59.967,13.438
				c32.806,0,59.443-5.997,59.968-13.438H116.054z"/>
			<g>
				<g>
					<path fill="#C3996C" d="M96.87,57.419c-3.887,1.141-7.406,0.581-7.498,0.354c-0.09-0.227,0.398,4.399,8.011,2.922"/>
					<path fill="#C3996C" d="M97.422,60.188c-3.999,1.155-7.604,0.646-7.695,0.425c-0.092-0.219,0.362,4.288,8.188,2.767"/>
					<path fill="#C3996C" d="M97.831,62.713c-3.903,1.118-7.417,0.648-7.505,0.439c-0.087-0.21,0.335,4.083,7.971,2.599"/>
				</g>
				<path fill="#764E2A" d="M90.257,8.861H70.063l0.697,3.495l10.278-1.915c1.71-0.318,3.465,1.19,4.23,3.483l0.078-0.016
					L95.88,66.729c0.284,0.039,0.569,0.046,0.848-0.01c2.843-0.566,4.554-4.012,3.584-8.87L90.257,8.861z"/>
			</g>
			<g>
				<g>
					<path fill="#C3996C" d="M81.814,56.644c-3.887,1.142-7.406,0.583-7.497,0.356c-0.091-0.228,0.397,4.398,8.011,2.921"/>
					<path fill="#C3996C" d="M82.366,59.414c-3.999,1.153-7.604,0.645-7.695,0.425c-0.09-0.219,0.363,4.286,8.188,2.765"/>
					<path fill="#C3996C" d="M82.775,61.939c-3.902,1.116-7.417,0.648-7.504,0.438c-0.088-0.209,0.334,4.084,7.971,2.598"/>
				</g>
				<path fill="#764E2A" d="M74.906,36.279c0.26-0.098,0.521-0.189,0.801-0.245c2.843-0.567,5.608,1.278,6.175,4.122l3.911,19.613
					c0.567,2.843-1.278,5.608-4.121,6.176c-0.281,0.056-0.559,0.07-0.834,0.08L74.906,36.279z"/>
			</g>
			<g>
				<g>
					<path fill="#C3996C" d="M50.923,62.247c4.026-0.437,7.063-2.303,7.06-2.548c-0.004-0.244,1.32,4.216-6.277,5.771"/>
					<path fill="#C3996C" d="M51.475,65.017c4.137-0.468,7.271-2.32,7.271-2.56c-0.001-0.236,1.309,4.099-6.501,5.695"/>
					<path fill="#C3996C" d="M52.066,67.506c4.032-0.465,7.098-2.246,7.099-2.474c0-0.228,1.258,3.899-6.364,5.457"/>
				</g>
				<path fill="#764E2A" d="M49.49,40.79c-0.277,0.011-0.554,0.025-0.834,0.081c-2.843,0.566-4.688,3.332-4.121,6.175l3.911,19.614
					c0.566,2.842,3.332,4.688,6.175,4.122c0.28-0.057,0.542-0.148,0.801-0.246L49.49,40.79z"/>
			</g>
			<g>
				<g>
					<path fill="#C3996C" d="M39.253,68.235c4.026-0.438,7.063-2.304,7.061-2.548c-0.004-0.244,1.319,4.216-6.278,5.771"/>
					<path fill="#C3996C" d="M39.806,71.005c4.136-0.468,7.27-2.321,7.27-2.559c0-0.238,1.31,4.097-6.501,5.694"/>
					<path fill="#C3996C" d="M40.396,73.493c4.033-0.464,7.099-2.246,7.099-2.474c0.001-0.227,1.258,3.9-6.364,5.458"/>
				</g>
				<path fill="#764E2A" d="M42.952,76.77c0.277-0.056,0.539-0.172,0.786-0.316L33.205,23.634l0.078-0.016
					c-0.174-2.411,0.869-4.477,2.57-4.839l10.227-2.175l-1.439-7.217l-15.099,3.012l0.008,0.04
					c-2.504,0.699-3.962,2.592-3.263,6.098l9.951,51.413C37.208,74.812,40.108,77.337,42.952,76.77z"/>
			</g>
			<path fill="#8B5F3D" d="M89.109,37.052l-5.622-28.19H31.144l7.623,38.229c1.296,6.499,8.183,10.604,15.385,9.169l24.265-4.839
				C85.617,49.984,90.404,43.551,89.109,37.052L89.109,37.052z"/>
			<g>
				<path fill="#D2D3D4" d="M79.359,8.861H35.346l3.891,19.137c1.02,3.973,2.711,5.797,8.161,4.71l25.711-5.127
					c7.115-1.419,9.619-1.825,8.521-7.332L79.359,8.861z"/>
				<g>
					<path fill="#A8AAAD" d="M64.789,8.861c0.272,0.335,0.577,0.646,0.949,0.895l11.155,7.456c1.253,0.838,2.796,0.928,4.216,0.426
						l-1.751-8.776H64.789z"/>
					<g>
						<path fill="#C3996C" d="M66.096,8.861c1.079,1.302,2.778,2.002,4.522,1.654c1.105-0.221,2.023-0.833,2.688-1.654H66.096z"/>
						<path fill="#595A5C" d="M67.701,8.861c0.77,0.563,1.735,0.817,2.711,0.623c0.514-0.103,0.972-0.323,1.368-0.623H67.701z"/>
					</g>
				</g>
				<g>
					<path fill="#A8AAAD" d="M39.279,8.861l-3.051,4.577l2.522,12.646c1.504-0.082,2.893-0.756,3.73-2.011l7.441-11.165
						c0.803-1.204,0.919-2.676,0.482-4.048H39.279z"/>
					<g>
						
							<ellipse transform="matrix(-0.1956 -0.9807 0.9807 -0.1956 42.9815 56.741)" fill="#C3996C" cx="44.762" cy="10.743" rx="4.833" ry="4.72"/>
						
							<ellipse transform="matrix(-0.1956 -0.9807 0.9807 -0.1956 42.9811 56.7415)" fill="#595A5C" cx="44.762" cy="10.743" rx="3.783" ry="3.55"/>
					</g>
				</g>
				<path fill="#595A5C" d="M62.348,17.576c0.223,1.114-0.425,2.184-1.442,2.386l-1.786,0.356c-1.02,0.203-2.025-0.536-2.247-1.65
					l0,0c-0.223-1.113,0.425-2.182,1.442-2.384l1.786-0.356C61.118,15.725,62.126,16.463,62.348,17.576L62.348,17.576z"/>
				<path fill="#595A5C" d="M51.375,22.883c-0.007,0.191,0.002,0.39,0.043,0.593c0.204,1.024,0.966,1.736,1.701,1.589l14.329-2.856
					c0.735-0.147,1.165-1.097,0.961-2.121c-0.04-0.203-0.107-0.39-0.188-0.563L51.375,22.883z"/>
			</g>
			<path fill="#F68A1F" d="M11.556,18.123c0.426-4.946,23.647-8.934,52.249-8.934s51.823,3.987,52.249,8.934h7.262
				c0.005-0.074,0.024-0.148,0.024-0.223c0-7.545-26.858-13.661-59.992-13.661c-33.133,0-59.991,6.116-59.991,13.661
				c0,0.074,0.02,0.148,0.024,0.223H11.556z"/>
		</g>
	</g>
</g>
</svg>
