<?xml version="1.0" encoding="utf-8"?>
<!-- Generator: Adobe Illustrator 16.0.3, SVG Export Plug-In . SVG Version: 6.00 Build 0)  -->
<!DOCTYPE svg PUBLIC "-//W3C//DTD SVG 1.1//EN" "http://www.w3.org/Graphics/SVG/1.1/DTD/svg11.dtd">
<svg version="1.1" id="Layer_1" xmlns="http://www.w3.org/2000/svg" xmlns:xlink="http://www.w3.org/1999/xlink" x="0px" y="0px"
	 width="612px" height="792px" viewBox="0 0 612 792" enable-background="new 0 0 612 792" xml:space="preserve">
<g>
	<g>
		<path fill="#9B9B9B" d="M66.507,90.401l0.117-2.832c-4.034,0.359-7.377-0.877-7.422-1.117c-0.034-0.186-0.28,2.563,3.241,3.818
			c-2.047-0.287-3.42-0.818-3.449-0.965c-0.033-0.164-0.246,2.041,2.449,3.359c-1.426-0.277-2.334-0.637-2.357-0.752
			c-0.045-0.223-0.471,4.07,7.309,4.107l0.137-3.07c-0.007,0.002-0.013,0.002-0.02,0.002l0.112-2.559
			C66.584,90.397,66.546,90.397,66.507,90.401z"/>
		<path fill="#BCC932" d="M64.666,96.663c-0.284,0-0.563-0.063-0.833-0.156V42.647h-0.079c-0.303-2.399-1.729-4.222-3.468-4.244
			l-10.454-0.132v-7.358h15.396v0.04c2.592,0.197,4.393,1.768,4.393,5.343l0.294,52.368C69.916,93.618,67.564,96.663,64.666,96.663z
			"/>
	</g>
	<g>
		<path fill="#9B9B9B" d="M51.894,86.698l0.117-2.832c-4.034,0.359-7.377-0.877-7.422-1.117c-0.034-0.186-0.281,2.563,3.242,3.818
			c-2.047-0.287-3.421-0.818-3.45-0.965c-0.032-0.164-0.245,2.041,2.452,3.359c-1.428-0.275-2.337-0.637-2.36-0.752
			c-0.045-0.223-0.471,4.07,7.309,4.105l0.137-3.068c-0.006,0-0.013,0-0.019,0l0.111-2.557
			C51.972,86.694,51.934,86.694,51.894,86.698z"/>
		<path fill="#BCC932" d="M49.219,62.543c0.273-0.045,0.549-0.084,0.833-0.084c2.899,0,5.25,2.35,5.25,5.25v20
			c0,2.898-2.351,5.25-5.25,5.25c-0.286,0-0.562-0.041-0.833-0.084V62.543z"/>
	</g>
	<g>
		<path fill="#9B9B9B" d="M28.158,87.663c-0.023,0.115-0.933,0.477-2.358,0.752c2.695-1.318,2.482-3.523,2.45-3.359
			c-0.029,0.146-1.403,0.678-3.45,0.965c3.523-1.256,3.276-4.004,3.242-3.818c-0.045,0.24-3.388,1.477-7.422,1.117l0.117,2.832
			c-0.039-0.004-0.078-0.004-0.117-0.008l0.111,2.559c-0.006,0-0.012,0-0.019-0.002l0.137,3.07
			C28.629,91.733,28.203,87.44,28.158,87.663z"/>
		<path fill="#BCC932" d="M23.411,61.997c-0.273-0.045-0.548-0.084-0.833-0.084c-2.899,0-5.25,2.352-5.25,5.25v20
			c0,2.898,2.351,5.25,5.25,5.25c0.285,0,0.561-0.039,0.833-0.084V61.997z"/>
	</g>
	<g>
		<path fill="#9B9B9B" d="M15.543,91.252c-0.023,0.115-0.933,0.477-2.358,0.752c2.695-1.318,2.482-3.523,2.45-3.359
			c-0.029,0.146-1.403,0.68-3.452,0.965c3.525-1.256,3.278-4.004,3.244-3.818c-0.045,0.24-3.388,1.477-7.422,1.117l0.117,2.832
			c-0.039-0.004-0.078-0.004-0.117-0.008l0.111,2.559c-0.006,0-0.012,0-0.019-0.002l0.137,3.07
			C16.014,95.323,15.588,91.03,15.543,91.252z"/>
		<path fill="#BCC932" d="M9.963,96.002c0.283,0,0.563-0.063,0.833-0.156V41.987h0.079c0.302-2.399,1.729-4.222,3.468-4.244
			l10.454-0.133v-7.358H9.4v0.04c-2.593,0.197-4.393,1.768-4.393,5.343L4.713,88.002C4.713,92.959,7.063,96.002,9.963,96.002z"/>
	</g>
	<path fill="#C3D82E" d="M62.995,66.079c0,6.627-5.952,12-13.296,12H24.957c-7.344,0-13.295-5.373-13.295-12V17.746
		c0-6.627,5.951-12,13.295-12h24.744c7.343,0,13.295,5.373,13.295,12L62.995,66.079L62.995,66.079z"/>
	<g>
		<path fill="#D2D3D4" d="M58.947,47.872c0,5.615-2.535,5.525-9.791,5.525H22.939c-5.558,0-6.859-2.121-7.082-6.214l-0.103-27.204
			c0-5.614,5.881-10.166,13.136-10.166h16.922c7.254,0,13.135,4.552,13.135,10.166V47.872z"/>
		<g>
			<path fill="#A8AAAD" d="M45.867,27.338c2.17-2.166,5.484-2.365,7.402-0.444l5.678,5.686v12.895
				c-1.49,0.214-2.985-0.175-4.051-1.241l-9.481-9.495C43.496,32.818,43.697,29.504,45.867,27.338z"/>
			<g>
				<ellipse fill="#C3996C" cx="50.052" cy="31.605" rx="4.72" ry="4.833"/>
				<ellipse fill="#595A5C" cx="50.052" cy="31.605" rx="3.552" ry="3.783"/>
			</g>
		</g>
		<g>
			<path fill="#A8AAAD" d="M28.835,27.338c-2.169-2.166-5.483-2.365-7.401-0.444l-5.679,5.686v12.895
				c1.491,0.214,2.985-0.175,4.052-1.241l9.481-9.495C31.207,32.818,31.004,29.504,28.835,27.338z"/>
			<g>
				<ellipse fill="#C3996C" cx="24.65" cy="31.605" rx="4.72" ry="4.833"/>
				<ellipse fill="#595A5C" cx="24.65" cy="31.605" rx="3.551" ry="3.783"/>
			</g>
		</g>
		<path fill="#595A5C" d="M40.561,41.745c0,1.137-0.844,2.059-1.882,2.059h-1.821c-1.039,0-1.881-0.922-1.881-2.059l0,0
			c0-1.135,0.844-2.056,1.881-2.056h1.821C39.717,39.689,40.561,40.61,40.561,41.745L40.561,41.745z"/>
		<path fill="#595A5C" d="M28.762,44.803c-0.044,0.187-0.074,0.383-0.074,0.591c0,1.045,0.608,1.891,1.358,1.891h14.61
			c0.75,0,1.357-0.846,1.357-1.891c0-0.208-0.029-0.404-0.074-0.591H28.762z"/>
	</g>
	<g>
		<path fill="#C3D82E" d="M40.46,9.504c-0.323-3.126,0.944-5.699,1.185-5.731c0.24-0.031-4.388-0.415-4.496,5.587"/>
		<path fill="#C3D82E" d="M37.636,9.471c-0.313-3.213,0.923-5.859,1.156-5.893c0.233-0.032-4.271-0.423-4.379,5.747"/>
		<path fill="#C3D82E" d="M35.081,9.37c-0.295-3.135,0.881-5.718,1.104-5.75c0.223-0.032-4.065-0.412-4.173,5.608"/>
	</g>
	<path opacity="0.6" fill="#F5F6F7" d="M58.947,47.872c0,5.615-2.535,5.525-9.791,5.525H22.939c-5.558,0-6.859-2.121-7.082-6.214
		l-0.103-27.204c0-5.614,5.881-10.166,13.136-10.166h16.922c7.254,0,13.135,4.552,13.135,10.166V47.872z"/>
	<polygon opacity="0.5" fill="#F5F6F7" points="49.088,52.614 44.172,47.743 33.526,9.37 38.692,15.75 	"/>
	<g>
		<path fill="#010101" d="M37.838,66.754c-0.485-0.291-0.77-0.803-0.8-1.34l-6.236,0.354c0,0.01,0,0.02,0,0.029l0.264,1.939
			c0.505,1.98,1.718,3.738,3.531,4.82l0.491-0.877L37.838,66.754z"/>
		<path fill="#030303" d="M37.546,64.672c0.355-0.637,1.133-0.861,1.734-0.502c0.604,0.359,0.803,1.168,0.447,1.805
			s-1.133,0.863-1.736,0.504C37.39,66.118,37.189,65.311,37.546,64.672z"/>
		<path fill="#010101" d="M40.179,65.303c0,0.58-0.288,1.09-0.723,1.387l3.414,5.406c0.008-0.004,0.018-0.01,0.025-0.016
			l1.492-1.205c1.406-1.441,2.271-3.406,2.271-5.572h-0.98H40.179z"/>
		<path fill="#010101" d="M37.819,63.979c0.486-0.289,1.058-0.287,1.522-0.045l2.823-5.762c-0.009-0.004-0.018-0.01-0.026-0.014
			l-1.755-0.734c-1.912-0.537-3.99-0.33-5.805,0.752l0.49,0.879L37.819,63.979z"/>
	</g>
</g>
</svg>
