<?xml version="1.0" encoding="utf-8"?>
<!-- Generator: Adobe Illustrator 16.0.3, SVG Export Plug-In . SVG Version: 6.00 Build 0)  -->
<!DOCTYPE svg PUBLIC "-//W3C//DTD SVG 1.1//EN" "http://www.w3.org/Graphics/SVG/1.1/DTD/svg11.dtd">
<svg version="1.1" id="Layer_1" xmlns="http://www.w3.org/2000/svg" xmlns:xlink="http://www.w3.org/1999/xlink" x="0px" y="0px"
	 width="612px" height="792px" viewBox="0 0 612 792" enable-background="new 0 0 612 792" xml:space="preserve">
<g>
	<g>
		<polygon fill="#E99F29" points="70.882,88.215 63.568,87.673 66.113,89.573 69.667,90.508 63.193,90.465 66.609,92.551 
			70.203,93.348 63.568,92.798 66.693,94.923 70.358,95.432 73.424,91.328 		"/>
		<path fill="#E99F29" d="M69.743,95.801c-0.284,0-0.563-0.063-0.833-0.156v-53.86h-0.079c-0.303-2.399-1.729-4.221-3.468-4.243
			L54.909,37.41v-7.358h15.396v0.04c2.592,0.197,4.393,1.768,4.393,5.343l0.294,52.367C74.993,92.756,72.642,95.801,69.743,95.801z"
			/>
		<ellipse fill="#E99F29" cx="68.503" cy="32.001" rx="12.335" ry="12.668"/>
	</g>
	<g>
		<path fill="#E99F29" d="M28.488,60.135c-0.273-0.045-0.548-0.084-0.833-0.084c-2.899,0-5.25,2.351-5.25,5.25v20
			c0,2.898,2.351,5.25,5.25,5.25c0.285,0,0.561-0.04,0.833-0.084V60.135z"/>
		<polyline fill="#E99F29" points="27.276,77.006 32.499,85.346 32.499,90.453 27.655,90.551 		"/>
		<path fill="#E9C427" d="M22.405,85.301c0,0.018,0.005,0.033,0.005,0.051l3.036-3.221v-6.83l-3.041-2.748V85.301z"/>
		<ellipse fill="#5E5E5E" cx="26.92" cy="70.027" rx="6.358" ry="6.687"/>
	</g>
	<g>
		<path fill="#E99F29" d="M55.881,60.135c0.273-0.045,0.548-0.084,0.833-0.084c2.899,0,5.25,2.351,5.25,5.25v20
			c0,2.898-2.351,5.25-5.25,5.25c-0.285,0-0.561-0.04-0.833-0.084V60.135z"/>
		<polyline fill="#E99F29" points="57.093,77.006 51.87,85.346 51.87,90.453 56.714,90.551 		"/>
		<path fill="#E9C427" d="M61.964,85.301c0,0.018-0.005,0.033-0.005,0.051l-3.036-3.221v-6.83l3.041-2.748V85.301z"/>
		<ellipse fill="#5E5E5E" cx="57.449" cy="70.027" rx="6.358" ry="6.687"/>
	</g>
	<g>
		<path fill="#E99F29" d="M14.87,95.432c0.284,0,0.563-0.063,0.833-0.156V41.416h0.079c0.303-2.399,1.729-4.221,3.468-4.243
			l10.454-0.132v-7.358H14.308v0.04c-2.592,0.197-4.393,1.768-4.393,5.343L9.621,87.434C9.62,92.388,11.972,95.432,14.87,95.432z"/>
		<polygon fill="#30AA49" points="15.901,102.84 15.901,100.109 18.061,97.008 18.061,63.34 8.103,63.34 8.103,96.808 
			10.401,100.109 10.401,102.84 		"/>
		<ellipse fill="#E99F29" cx="16.11" cy="31.632" rx="12.335" ry="12.668"/>
	</g>
	<path fill="#E9C427" d="M68.072,64.217c0,6.627-5.952,12-13.296,12H30.034c-7.344,0-13.295-5.373-13.295-12V15.883
		c0-6.627,5.951-12,13.295-12h24.744c7.343,0,13.295,5.373,13.295,12L68.072,64.217L68.072,64.217z"/>
	<path fill="#D2D3D4" d="M64.024,46.274c0,5.615-2.535,5.525-9.791,5.525H28.017c-5.558,0-6.859-2.121-7.082-6.216L20.832,18.38
		c0-5.614,5.881-10.166,13.136-10.166H50.89c7.254,0,13.135,4.552,13.135,10.166V46.274z"/>
	<g>
		<path fill="#A8AAAD" d="M50.944,25.476c2.17-2.166,5.484-2.365,7.402-0.444l5.678,5.686v12.895
			c-1.49,0.214-2.985-0.175-4.051-1.242l-9.481-9.494C48.573,30.956,48.774,27.642,50.944,25.476z"/>
		<g>
			<ellipse fill="#C3996C" cx="55.129" cy="29.743" rx="4.72" ry="4.833"/>
			<ellipse fill="#595A5C" cx="55.129" cy="29.742" rx="3.552" ry="3.783"/>
		</g>
	</g>
	<path fill="#595A5C" d="M45.638,39.883c0,1.136-0.844,2.058-1.882,2.058h-1.821c-1.039,0-1.881-0.922-1.881-2.058l0,0
		c0-1.136,0.844-2.057,1.881-2.057h1.821C44.794,37.827,45.638,38.748,45.638,39.883L45.638,39.883z"/>
	<g>
		<path fill="#A8AAAD" d="M33.912,25.476c-2.169-2.166-5.483-2.365-7.401-0.444l-5.679,5.686v12.895
			c1.491,0.214,2.985-0.175,4.052-1.242l9.481-9.494C36.284,30.956,36.081,27.642,33.912,25.476z"/>
		<g>
			<ellipse fill="#C3996C" cx="29.728" cy="29.743" rx="4.72" ry="4.833"/>
			<ellipse fill="#595A5C" cx="29.728" cy="29.742" rx="3.551" ry="3.783"/>
		</g>
	</g>
	<path fill="#595A5C" d="M33.839,42.94c-0.044,0.187-0.074,0.383-0.074,0.591c0,1.044,0.608,1.891,1.358,1.891h14.61
		c0.75,0,1.357-0.847,1.357-1.891c0-0.208-0.029-0.404-0.074-0.591H33.839z"/>
	<g>
		<path fill="#CE2127" d="M42.846,56.836l25.228-7.224V15.883c0-6.627-5.952-12-13.295-12H30.034c-7.344,0-13.295,5.373-13.295,12
			V49.36L42.846,56.836z M19.67,17.692l22.556,10.902l22.556-10.902v13.15L42.226,44.182L19.67,30.842V17.692z"/>
		<ellipse fill="#CE2127" cx="16.151" cy="29.903" rx="2.25" ry="10.147"/>
		<ellipse fill="#CE2127" cx="68.565" cy="29.743" rx="2.25" ry="10.147"/>
		<polygon opacity="0.9" fill="#A7CF38" points="42.226,28.594 19.67,17.692 19.67,30.842 42.226,44.182 64.781,30.842 
			64.781,17.692 		"/>
	</g>
</g>
</svg>
