<?xml version="1.0" encoding="utf-8"?>
<!-- Generator: Adobe Illustrator 16.0.3, SVG Export Plug-In . SVG Version: 6.00 Build 0)  -->
<!DOCTYPE svg PUBLIC "-//W3C//DTD SVG 1.1//EN" "http://www.w3.org/Graphics/SVG/1.1/DTD/svg11.dtd">
<svg version="1.1" id="Layer_1" xmlns="http://www.w3.org/2000/svg" xmlns:xlink="http://www.w3.org/1999/xlink" x="0px" y="0px"
	 width="612px" height="792px" viewBox="0 0 612 792" enable-background="new 0 0 612 792" xml:space="preserve">
<g>
	<g>
		<path fill="#CFE8EF" d="M15.075,86.892h-4.884v31.18h0.012c-0.002,0.06-0.012,0.116-0.012,0.176c0,2.001,1.094,3.623,2.442,3.623
			c1.349,0,2.442-1.622,2.442-3.623c0-0.06-0.01-0.116-0.012-0.176h0.012V86.892z"/>
		<path fill="#874E9F" d="M15.068,101.519l-4.883,0.049v16.735h0.012c-0.001,0.06-0.012,0.117-0.012,0.177
			c0,2,1.093,3.622,2.442,3.622c1.349,0,2.441-1.622,2.441-3.622c0-0.06-0.01-0.117-0.012-0.177h0.012V101.519z"/>
		<ellipse fill="#874E9F" cx="12.626" cy="101.327" rx="2.442" ry="1.233"/>
		<path opacity="0.5" fill="#CFE8EF" d="M15.068,87.094h-4.883v31.18h0.012c-0.001,0.06-0.012,0.116-0.012,0.176
			c0,2.001,1.093,3.623,2.442,3.623c1.349,0,2.441-1.622,2.441-3.623c0-0.06-0.01-0.116-0.012-0.176h0.012V87.094z"/>
		<path fill="#ADD1E2" d="M15.592,86.988c0,0.478-1.491,0.388-3.33,0.388c-1.839,0-2.603,0.478-2.603,0s0.764-1.731,2.603-1.731
			C14.102,85.645,15.592,86.511,15.592,86.988z"/>
		<path fill="#B7DDF2" d="M9.66,87.217c0-0.478,1.491-0.388,3.33-0.388c1.839,0,2.603-0.478,2.603,0s-0.764,1.731-2.603,1.731
			C11.151,88.561,9.66,87.694,9.66,87.217z"/>
		<ellipse opacity="0.5" fill="#DDF2F9" cx="11.128" cy="104.075" rx="0.31" ry="15.313"/>
	</g>
	<g>
		<path fill="#CFE8EF" d="M67.789,110.252l0.03-0.018l-5.96-13.364h0.022V86.604h-5.363v10.18l-6,13.451l0.021,0.012
			c-0.048,0.123-0.081,0.247-0.081,0.374c0,1.596,3.897,2.889,8.704,2.889s8.704-1.293,8.704-2.889
			C67.867,110.495,67.834,110.373,67.789,110.252z"/>
		<path fill="#54BB74" d="M67.819,110.333l-2.959-6.635H53.478l-2.96,6.635l0.021,0.012c-0.048,0.122-0.081,0.247-0.081,0.374
			c0,1.596,3.897,2.889,8.704,2.889s8.704-1.293,8.704-2.889c0-0.125-0.032-0.248-0.078-0.368L67.819,110.333z"/>
		<ellipse fill="#54BB74" cx="59.163" cy="103.698" rx="5.701" ry="1"/>
		<path opacity="0.5" fill="#CFE8EF" d="M67.826,110.582l0.03-0.018L61.896,97.2h0.022V86.934h-5.363v10.18l-6,13.451l0.021,0.012
			c-0.048,0.122-0.081,0.247-0.081,0.374c0,1.596,3.897,2.889,8.704,2.889s8.704-1.293,8.704-2.889
			C67.904,110.825,67.872,110.702,67.826,110.582z"/>
		<path fill="#ADD1E2" d="M62.458,86.618c0,0.398-1.638,0.323-3.658,0.323c-2.02,0-2.857,0.399-2.857,0
			c0-0.398,0.838-1.445,2.857-1.445C60.82,85.496,62.458,86.219,62.458,86.618z"/>
		<path fill="#B7DDF2" d="M55.942,86.809c0-0.398,1.638-0.324,3.657-0.324s2.858-0.398,2.858,0c0,0.399-0.839,1.446-2.858,1.446
			S55.942,87.208,55.942,86.809z"/>
		<path opacity="0.5" fill="#DDF2F9" d="M56.287,104.585c-0.958,3.86-1.89,6.943-2.08,6.882c-0.19-0.061,0.433-3.239,1.392-7.101
			c0.957-3.861,1.889-6.942,2.079-6.882C57.868,97.546,57.245,100.724,56.287,104.585z"/>
	</g>
	<g>
		<g>
			<g>
				<path fill="#C3996C" d="M19.714,82.636c4.034,0.359,7.377-0.877,7.422-1.117c0.044-0.24,0.47,4.392-7.285,4.432"/>
				<path fill="#C3996C" d="M19.714,85.46c4.147,0.35,7.583-0.854,7.63-1.088c0.046-0.232,0.482,4.274-7.489,4.313"/>
				<path fill="#C3996C" d="M19.807,88.017c4.046,0.332,7.4-0.814,7.445-1.037s0.471,4.07-7.309,4.106"/>
			</g>
			<path fill="#764E2A" d="M22.505,61.313c-0.273-0.045-0.548-0.084-0.833-0.084c-2.899,0-5.25,2.351-5.25,5.25v20
				c0,2.898,2.351,5.25,5.25,5.25c0.285,0,0.561-0.04,0.833-0.084V61.313z"/>
		</g>
		<path fill="#232323" d="M16.422,79.99v6.49c0,2.898,2.351,5.25,5.25,5.25c0.285,0,0.561-0.04,0.833-0.084v-0.758
			c5.116-0.847,4.786-4.103,4.747-3.908c-0.023,0.115-0.932,0.476-2.359,0.752c2.696-1.319,2.483-3.523,2.451-3.359
			c-0.029,0.146-1.403,0.678-3.45,0.965c3.522-1.257,3.276-4.005,3.242-3.818c-0.034,0.182-1.954,0.932-4.631,1.132V79.99H16.422z"
			/>
	</g>
	<g>
		<g>
			<g>
				<path fill="#C3996C" d="M52.756,82.636c-4.035,0.359-7.377-0.877-7.422-1.117s-0.471,4.392,7.285,4.432"/>
				<path fill="#C3996C" d="M52.756,85.46c-4.148,0.35-7.584-0.854-7.631-1.088c-0.045-0.232-0.482,4.274,7.49,4.313"/>
				<path fill="#C3996C" d="M52.663,88.017c-4.045,0.332-7.4-0.814-7.445-1.037s-0.471,4.07,7.309,4.106"/>
			</g>
			<path fill="#764E2A" d="M49.965,61.313c0.273-0.045,0.547-0.084,0.832-0.084c2.9,0,5.25,2.351,5.25,5.25v20
				c0,2.898-2.35,5.25-5.25,5.25c-0.285,0-0.561-0.04-0.832-0.084V61.313z"/>
		</g>
		<path fill="#232323" d="M56.047,79.99v6.49c0,2.898-2.35,5.25-5.25,5.25c-0.285,0-0.561-0.04-0.832-0.084v-0.758
			c-5.116-0.847-4.787-4.103-4.748-3.908c0.023,0.115,0.933,0.476,2.359,0.752c-2.696-1.319-2.483-3.523-2.451-3.359
			c0.029,0.146,1.403,0.678,3.45,0.965c-3.522-1.257-3.276-4.005-3.241-3.818c0.033,0.182,1.953,0.932,4.631,1.132V79.99H56.047z"/>
	</g>
	<g>
		<path fill="#764E2A" d="M8.725,91.969c0.283,0,0.563-0.063,0.833-0.156V53.953h0.079c0.302-2.399,1.729-4.222,3.468-4.244
			l10.454-0.133v-7.357H8.163v0.04C5.57,42.455,3.77,44.026,3.77,47.602L3.475,83.969C3.475,88.925,5.826,91.969,8.725,91.969z"/>
		<path fill="#E4BE21" d="M3.577,72.511L3.475,90.527c0,4.956,2.351,8,5.25,8c0.283,0,0.563-0.063,0.833-0.156v-0.686
			c5.116-0.847,4.786-4.103,4.747-3.908c-0.023,0.115-0.932,0.476-2.359,0.752c2.696-1.318,2.483-3.523,2.451-3.359
			c-0.03,0.146-1.404,0.679-3.452,0.965c3.524-1.256,3.278-4.005,3.244-3.818c-0.034,0.182-1.954,0.932-4.631,1.132V72.511H3.577z"
			/>
		<path fill="#ECEBF1" d="M19.355,48.153c0-4.124-3.684-7.468-8.227-7.468c-4.544,0-8.228,3.344-8.228,7.468v27.658h15.375V51.843
			C18.959,50.754,19.355,49.497,19.355,48.153z"/>
		<rect x="10.191" y="52.979" fill="#BCBCBC" width="16.182" height="22.833"/>
	</g>
	<g>
		<path fill="#764E2A" d="M63.953,92.513c-0.283,0-0.563-0.063-0.833-0.156V54.497h-0.079c-0.302-2.399-1.729-4.222-3.468-4.244
			L49.119,50.12v-7.357h15.396v0.04c2.593,0.196,4.393,1.768,4.393,5.343l0.295,36.367C69.203,89.469,66.852,92.513,63.953,92.513z"
			/>
		<path fill="#E4BE21" d="M69.101,73.055l0.102,18.017c0,4.956-2.351,8-5.25,8c-0.283,0-0.563-0.063-0.833-0.156v-0.686
			c-5.115-0.847-4.786-4.103-4.747-3.908c0.022,0.115,0.933,0.476,2.358,0.752c-2.695-1.318-2.482-3.523-2.45-3.359
			c0.03,0.146,1.403,0.679,3.452,0.965c-3.525-1.256-3.278-4.005-3.244-3.818c0.033,0.182,1.953,0.932,4.631,1.132V73.055H69.101z"
			/>
		<path fill="#ECEBF1" d="M53.323,48.697c0-4.124,3.684-7.468,8.227-7.468c4.544,0,8.228,3.344,8.228,7.468v27.658H54.402V52.387
			C53.718,51.298,53.323,50.041,53.323,48.697z"/>
		<rect x="46.305" y="53.522" fill="#BCBCBC" width="16.182" height="22.833"/>
	</g>
	<path fill="#8B5F3D" d="M62.088,65.396c0,6.627-5.951,12-13.295,12H24.051c-7.344,0-13.295-5.373-13.295-12V17.063
		c0-6.627,5.951-12,13.295-12h24.745c7.342,0,13.295,5.373,13.295,12v48.334H62.088z"/>
	<g>
		<path fill="#8B5F3D" d="M39.553,8.821c-0.322-3.126,0.945-5.699,1.186-5.731c0.24-0.031-4.388-0.414-4.497,5.588"/>
		<path fill="#8B5F3D" d="M36.729,8.788c-0.313-3.213,0.923-5.858,1.156-5.894c0.234-0.031-4.27-0.422-4.378,5.748"/>
		<path fill="#8B5F3D" d="M34.175,8.688c-0.295-3.135,0.881-5.719,1.104-5.75c0.223-0.032-4.065-0.412-4.173,5.607"/>
	</g>
	<rect x="25.842" y="52.025" fill="#8C8C8C" width="24.737" height="10.42"/>
	<g>
		<g>
			<g>
				<polygon fill="#ECEBF1" points="39.273,63.737 37.803,61.796 37.803,84.612 62.279,84.612 62.279,46.766 				"/>
			</g>
			<g>
				<g>
					<polygon fill="#BCBCBC" points="14.682,43.263 10.76,43.263 10.76,85.081 44.796,85.081 44.796,67.229 					"/>
				</g>
				<g>
					<polygon fill="#ECEBF1" points="14.438,43.175 10.516,43.175 10.516,85.572 44.551,85.572 44.551,67.474 					"/>
				</g>
			</g>
		</g>
		<g>
			<g>
				<polygon fill="#BCBCBC" points="66.29,47.374 62.831,42.219 36.268,62.603 39.79,64.552 60,57.469 59.372,49.557 				"/>
				<polygon fill="#ECEBF1" points="65.481,46.143 62.096,40.686 35.922,62.411 39.447,64.362 59.327,56.826 58.711,48.452 				"/>
			</g>
			<g>
				<polyline fill="#BCBCBC" points="10.047,40.852 44.551,67.474 12.877,56.102 13.506,48.189 6.588,46.007 				"/>
				<polyline fill="#ECEBF1" points="10.782,39.318 44.551,67.474 13.551,55.459 14.167,47.085 7.397,44.775 				"/>
			</g>
		</g>
	</g>
	<g>
		<path fill="#D2D3D4" d="M58.042,47.454c0,5.615-2.535,5.524-9.791,5.524H22.033c-5.558,0-6.859-2.12-7.082-6.215l-0.103-27.203
			c0-5.614,5.881-10.166,13.136-10.166h16.922c7.254,0,13.135,4.552,13.135,10.166V47.454z"/>
		<g>
			<path fill="#A8AAAD" d="M44.961,26.655c2.17-2.166,5.484-2.365,7.402-0.444l5.678,5.686v12.896
				c-1.49,0.214-2.986-0.175-4.051-1.241l-9.482-9.494C42.59,32.135,42.792,28.821,44.961,26.655z"/>
			<g>
				<ellipse fill="#C3996C" cx="49.145" cy="30.923" rx="4.721" ry="4.833"/>
				<ellipse fill="#595A5C" cx="49.145" cy="30.922" rx="3.553" ry="3.783"/>
			</g>
		</g>
		<g>
			<path fill="#A8AAAD" d="M27.929,26.655c-2.169-2.166-5.483-2.365-7.401-0.444l-5.679,5.686v12.896
				c1.491,0.214,2.985-0.175,4.052-1.241l9.481-9.494C30.301,32.135,30.098,28.821,27.929,26.655z"/>
			<g>
				<ellipse fill="#C3996C" cx="23.744" cy="30.923" rx="4.72" ry="4.833"/>
				<ellipse fill="#595A5C" cx="23.744" cy="30.922" rx="3.551" ry="3.783"/>
			</g>
		</g>
		<path fill="#595A5C" d="M39.655,41.063c0,1.137-0.844,2.059-1.883,2.059h-1.821c-1.039,0-1.881-0.922-1.881-2.059l0,0
			c0-1.135,0.844-2.057,1.881-2.057h1.821C38.811,39.006,39.655,39.928,39.655,41.063L39.655,41.063z"/>
		<path fill="#595A5C" d="M27.855,44.12c-0.044,0.187-0.074,0.383-0.074,0.591c0,1.045,0.608,1.891,1.358,1.891H43.75
			c0.75,0,1.357-0.846,1.357-1.891c0-0.208-0.029-0.404-0.074-0.591H27.855z"/>
	</g>
	<g>
		<path opacity="0.5" fill="#898989" d="M61.069,34.025l-0.359-3.954c0-0.001-0.635-1.385-1.863-2.673
			c-3.881-1.293-10.775-2.784-20.102-2.785c-0.652-0.001-1.285-0.001-1.9-0.001s-1.249,0-1.901,0.001
			c-9.326,0.001-16.22,1.492-20.102,2.785c-1.228,1.288-1.863,2.672-1.863,2.673l-0.358,3.954
			c0.394,6.881,4.983,11.197,10.804,11.679c4.93-0.293,7.156-1.813,8.648-3.328c1.479-1.698,2.479-3.39,4.772-3.336
			c2.293-0.054,3.293,1.638,4.772,3.336c1.492,1.516,3.718,3.035,8.647,3.328C56.084,45.223,60.674,40.906,61.069,34.025z"/>
		<path fill="#898989" d="M61.792,29.671c0-0.002-0.664-1.47-1.947-2.837c-4.059-1.372-11.264-2.954-21.014-2.955
			c-0.682,0-1.344-0.001-1.986-0.001c-0.643,0-1.305,0.001-1.987,0.001c-9.749,0.001-16.955,1.583-21.013,2.955
			c-1.284,1.367-1.947,2.835-1.947,2.837l-0.375,4.195c0.412,7.301,5.209,11.881,11.293,12.392c5.154-0.312,7.48-1.924,9.04-3.531
			c1.547-1.803,2.593-3.598,4.989-3.54c2.396-0.058,3.441,1.737,4.988,3.54c1.561,1.607,3.887,3.22,9.04,3.531
			c6.084-0.511,10.882-5.091,11.294-12.392L61.792,29.671z M50.264,44.937c-4.93-0.281-7.155-1.738-8.647-3.19
			c-1.479-1.629-2.479-3.25-4.772-3.198c-2.293-0.052-3.293,1.569-4.772,3.198c-1.492,1.452-3.718,2.909-8.648,3.19
			c-5.821-0.462-10.41-4.6-10.804-11.196l0.358-3.79c0-0.001,0.635-1.327,1.863-2.563c3.882-1.239,10.776-2.668,20.102-2.67
			c0.652,0,1.286,0,1.901-0.001c0.615,0.001,1.248,0.001,1.9,0.001c9.326,0.002,16.221,1.431,20.102,2.67
			c1.229,1.235,1.863,2.562,1.863,2.563l0.359,3.79C60.674,40.337,56.084,44.475,50.264,44.937z"/>
	</g>
</g>
</svg>
