<?xml version="1.0" encoding="utf-8"?>
<!-- Generator: Adobe Illustrator 16.0.3, SVG Export Plug-In . SVG Version: 6.00 Build 0)  -->
<!DOCTYPE svg PUBLIC "-//W3C//DTD SVG 1.1//EN" "http://www.w3.org/Graphics/SVG/1.1/DTD/svg11.dtd">
<svg version="1.1" id="Layer_1" xmlns="http://www.w3.org/2000/svg" xmlns:xlink="http://www.w3.org/1999/xlink" x="0px" y="0px"
	 width="612px" height="792px" viewBox="0 0 612 792" enable-background="new 0 0 612 792" xml:space="preserve">
<g>
	<g>
		<g>
			<path fill="#C3996C" d="M66.731,90.343c-4.033,0.359-7.377-0.877-7.422-1.117s-0.471,4.393,7.285,4.432"/>
			<path fill="#C3996C" d="M66.731,93.167c-4.146,0.35-7.583-0.854-7.63-1.088c-0.046-0.232-0.483,4.275,7.489,4.313"/>
			<path fill="#C3996C" d="M66.637,95.724c-4.045,0.332-7.399-0.814-7.444-1.037s-0.472,4.07,7.308,4.107"/>
		</g>
		<path fill="#181919" d="M64.774,99.437c-0.285,0-0.563-0.063-0.834-0.156V45.421h-0.078c-0.303-2.399-1.73-4.221-3.469-4.243
			l-10.454-0.132v-7.358h15.396v0.04c2.594,0.197,4.395,1.768,4.395,5.343l0.293,52.368C70.024,96.392,67.672,99.437,64.774,99.437z
			"/>
	</g>
	<g>
		<g>
			<path fill="#C3996C" d="M52.118,85.46c-4.033,0.359-7.377-0.877-7.422-1.117c-0.044-0.24-0.47,4.391,7.285,4.432"/>
			<path fill="#C3996C" d="M52.118,88.284c-4.146,0.35-7.583-0.855-7.63-1.088c-0.046-0.232-0.483,4.273,7.489,4.313"/>
			<path fill="#C3996C" d="M52.025,90.841c-4.046,0.332-7.399-0.814-7.444-1.037c-0.046-0.223-0.472,4.07,7.307,4.105"/>
		</g>
		<path fill="#181919" d="M49.326,64.138c0.272-0.045,0.548-0.084,0.833-0.084c2.898,0,5.25,2.351,5.25,5.25v20
			c0,2.898-2.352,5.25-5.25,5.25c-0.285,0-0.561-0.041-0.833-0.084V64.138z"/>
	</g>
	<g>
		<g>
			<path fill="#C3996C" d="M20.727,84.914c4.034,0.358,7.377-0.878,7.422-1.118c0.044-0.24,0.47,4.393-7.285,4.432"/>
			<path fill="#C3996C" d="M20.727,87.737c4.147,0.35,7.583-0.854,7.63-1.088c0.046-0.232,0.483,4.275-7.489,4.313"/>
			<path fill="#C3996C" d="M20.82,90.294c4.046,0.332,7.4-0.814,7.445-1.037c0.045-0.223,0.471,4.07-7.308,4.107"/>
		</g>
		<path fill="#181919" d="M23.518,63.591c-0.273-0.044-0.548-0.084-0.833-0.084c-2.899,0-5.25,2.352-5.25,5.25v20
			c0,2.898,2.351,5.25,5.25,5.25c0.286,0,0.561-0.039,0.833-0.084V63.591z"/>
	</g>
	<g>
		<g>
			<path fill="#C3996C" d="M8.112,90.345c4.034,0.357,7.377-0.879,7.422-1.119c0.044-0.24,0.47,4.393-7.285,4.432"/>
			<path fill="#C3996C" d="M8.112,93.169c4.147,0.35,7.583-0.855,7.63-1.088c0.046-0.234,0.483,4.273-7.489,4.313"/>
			<path fill="#C3996C" d="M8.205,95.724c4.046,0.334,7.4-0.814,7.445-1.037c0.045-0.223,0.471,4.07-7.308,4.107"/>
		</g>
		<path fill="#181919" d="M10.07,99.437c0.284,0,0.562-0.063,0.833-0.156V45.421h0.079c0.302-2.399,1.729-4.221,3.468-4.243
			l10.454-0.133v-7.358H9.508v0.04c-2.593,0.197-4.393,1.768-4.393,5.343L4.82,91.437C4.82,96.394,7.17,99.437,10.07,99.437z"/>
	</g>
	<path fill="#8B5F3D" d="M63.102,67.673c0,6.627-5.952,12-13.295,12H25.064c-7.343,0-13.295-5.373-13.295-12V19.34
		c0-6.627,5.952-12,13.295-12h24.743c7.344,0,13.297,5.373,13.297,12v48.333H63.102z"/>
	<g>
		<path fill="#8B5F3D" d="M40.567,11.098c-0.323-3.126,0.945-5.699,1.186-5.731c0.239-0.031-4.389-0.415-4.498,5.587"/>
		<path fill="#8B5F3D" d="M37.743,11.065c-0.313-3.213,0.924-5.859,1.156-5.893c0.234-0.032-4.27-0.423-4.379,5.747"/>
		<path fill="#8B5F3D" d="M35.188,10.964c-0.295-3.135,0.881-5.718,1.104-5.75c0.223-0.032-4.065-0.412-4.172,5.608"/>
	</g>
	
		<rect x="19.707" y="48.338" fill="#FFFFFF" stroke="#010101" stroke-width="1.3756" stroke-miterlimit="10" width="36.379" height="18.225"/>
	<polyline fill="#595A5C" points="33.738,54.006 37.458,57.415 41.178,54.006 	"/>
	<path fill="#181919" d="M63.131,67.673c0,6.627-5.952,12-13.295,12H37.95V66.562l25.182-33.098V67.673z"/>
	<path fill="#181919" d="M11.648,67.669c0,6.627,5.952,12,13.295,12h11.886V66.562L11.561,33.468L11.648,67.669z"/>
	<polyline fill="#595A5C" points="37.458,57.415 32.638,78.155 37.458,87.378 42.279,78.155 	"/>
	<g>
		<path fill="#D2D3D4" d="M59.055,49.731c0,5.616-2.536,5.525-9.791,5.525H23.046c-5.557,0-6.859-2.12-7.082-6.216l-0.102-27.203
			c0-5.614,5.881-10.166,13.135-10.166H45.92c7.254,0,13.135,4.552,13.135,10.166V49.731z"/>
		<g>
			<path fill="#A8AAAD" d="M45.975,28.932c2.169-2.166,5.482-2.365,7.402-0.444l5.678,5.686v12.895
				c-1.491,0.214-2.986-0.175-4.053-1.242l-9.48-9.494C43.603,34.412,43.805,31.098,45.975,28.932z"/>
			<g>
				<ellipse fill="#C3996C" cx="50.159" cy="33.199" rx="4.719" ry="4.833"/>
				<ellipse fill="#595A5C" cx="50.159" cy="33.199" rx="3.551" ry="3.783"/>
			</g>
		</g>
		<g>
			<path fill="#A8AAAD" d="M28.942,28.932c-2.169-2.166-5.483-2.365-7.402-0.444l-5.678,5.686v12.895
				c1.491,0.214,2.986-0.175,4.052-1.242l9.481-9.494C31.314,34.412,31.111,31.098,28.942,28.932z"/>
			<g>
				<ellipse fill="#C3996C" cx="24.758" cy="33.199" rx="4.719" ry="4.833"/>
				<ellipse fill="#595A5C" cx="24.758" cy="33.199" rx="3.551" ry="3.783"/>
			</g>
		</g>
		<path fill="#595A5C" d="M40.667,43.34c0,1.136-0.843,2.058-1.881,2.058h-1.821c-1.039,0-1.881-0.922-1.881-2.058l0,0
			c0-1.136,0.843-2.057,1.881-2.057h1.821C39.824,41.283,40.667,42.204,40.667,43.34L40.667,43.34z"/>
		<path fill="#595A5C" d="M28.869,46.397c-0.044,0.187-0.074,0.383-0.074,0.591c0,1.044,0.608,1.891,1.358,1.891h14.609
			c0.75,0,1.358-0.847,1.358-1.891c0-0.208-0.03-0.404-0.073-0.591H28.869z"/>
	</g>
	<g>
		<path opacity="0.8" fill="#636464" d="M18.591,33.599c0.793,3.582,1.34,6.862,7.227,7.32c5.887,0.457,7.403-4.073,8.042-6.868
			c0.641-2.804,0.233-5.208-1.107-6.181c-1.341-0.973-4.306-1.488-6.495-1.431c-2.189,0.057-4.87,0.401-6.443,1.431
			C18.242,28.901,18.09,31.335,18.591,33.599z"/>
		<path opacity="0.8" fill="#636464" d="M56.396,33.599c-0.793,3.582-1.341,6.862-7.227,7.32c-5.887,0.457-7.403-4.073-8.042-6.868
			c-0.642-2.804-0.234-5.208,1.106-6.181c1.341-0.973,4.306-1.488,6.495-1.431s4.869,0.401,6.443,1.431
			C56.745,28.901,56.897,31.335,56.396,33.599z"/>
		<path fill="#010101" d="M33.237,27.179c-1.455-1.088-4.672-1.664-7.048-1.6c-2.376,0.064-5.286,0.448-6.994,1.6
			c-1.708,1.152-1.873,3.874-1.329,6.404c0.861,4.004,1.455,7.671,7.843,8.183c6.389,0.512,8.036-4.553,8.729-7.677
			C35.135,30.954,34.692,28.266,33.237,27.179z M33.562,34.043c-0.62,2.774-2.092,7.272-7.802,6.817s-6.241-3.711-7.01-7.267
			c-0.486-2.247-0.339-4.664,1.188-5.687c1.526-1.022,4.127-1.363,6.25-1.42c2.124-0.057,5,0.455,6.3,1.42
			C33.788,28.874,34.184,31.26,33.562,34.043z"/>
		<path fill="#010101" d="M40.477,34.088c0.693,3.124,2.34,8.189,8.729,7.677c6.389-0.512,6.982-4.179,7.844-8.183
			c0.544-2.53,0.379-5.252-1.328-6.404c-1.708-1.152-4.617-1.536-6.994-1.6c-2.376-0.064-5.594,0.512-7.049,1.6
			C40.224,28.266,39.782,30.954,40.477,34.088z M42.428,27.908c1.301-0.965,4.177-1.477,6.301-1.42
			c2.123,0.057,4.725,0.397,6.25,1.42c1.527,1.023,1.674,3.439,1.188,5.687c-0.77,3.555-1.3,6.812-7.01,7.267
			c-5.711,0.455-7.182-4.043-7.803-6.817C40.733,31.26,41.128,28.874,42.428,27.908z"/>
		<path fill="#010101" d="M37.682,26.828L37.682,26.828c-0.013-0.001-0.06-0.001-0.073-0.001v0.001
			c-2.574,0.018-3.346,1.256-3.497,1.495v1.583c0.064-0.77,2.547-1.644,3.532-1.66c0.982,0.014,3.47,0.89,3.534,1.66v-1.583
			C41.028,28.084,40.256,26.847,37.682,26.828z"/>
		<polygon fill="#010101" points="18.336,30.975 12.877,29.208 12.877,26.827 18.336,28.6 		"/>
		<polygon fill="#010101" points="56.651,31.49 62.11,29.722 62.11,27.342 56.651,29.115 		"/>
	</g>
</g>
</svg>
