<?xml version="1.0" encoding="utf-8"?>
<!-- Generator: Adobe Illustrator 16.0.3, SVG Export Plug-In . SVG Version: 6.00 Build 0)  -->
<!DOCTYPE svg PUBLIC "-//W3C//DTD SVG 1.1//EN" "http://www.w3.org/Graphics/SVG/1.1/DTD/svg11.dtd">
<svg version="1.1" id="Layer_1" xmlns="http://www.w3.org/2000/svg" xmlns:xlink="http://www.w3.org/1999/xlink" x="0px" y="0px"
	 width="612px" height="792px" viewBox="0 0 612 792" enable-background="new 0 0 612 792" xml:space="preserve">
<g>
	<g>
		<g>
			<g>
				<path fill="#C3996C" d="M68.817,157.724c-4.034,0.358-7.377-0.878-7.422-1.118c-0.044-0.24-0.47,4.392,7.284,4.433"/>
				<path fill="#C3996C" d="M68.817,160.548c-4.147,0.35-7.583-0.855-7.63-1.089c-0.047-0.232-0.483,4.273,7.488,4.313"/>
				<path fill="#C3996C" d="M68.725,163.102c-4.047,0.334-7.4-0.813-7.445-1.037c-0.045-0.223-0.471,4.07,7.309,4.107"/>
			</g>
			<path fill="#764E2A" d="M66.859,166.815c-0.284,0-0.563-0.063-0.833-0.154v-53.859h-0.079c-0.303-2.398-1.729-4.221-3.468-4.243
				l-10.454-0.132v-7.357h15.396v0.039c2.592,0.197,4.393,1.768,4.393,5.344l0.294,52.367
				C72.109,163.772,69.758,166.815,66.859,166.815z"/>
		</g>
		<g>
			<g>
				<path fill="#C3996C" d="M54.204,154.02c-4.034,0.359-7.377-0.877-7.422-1.117c-0.044-0.24-0.47,4.392,7.285,4.432"/>
				<path fill="#C3996C" d="M54.204,156.844c-4.147,0.35-7.583-0.854-7.63-1.088c-0.046-0.232-0.482,4.274,7.489,4.313"/>
				<path fill="#C3996C" d="M54.111,159.401c-4.046,0.333-7.4-0.814-7.445-1.037s-0.471,4.068,7.309,4.105"/>
			</g>
			<path fill="#764E2A" d="M51.412,132.698c0.273-0.045,0.549-0.084,0.833-0.084c2.899,0,5.25,2.351,5.25,5.25v20
				c0,2.897-2.351,5.248-5.25,5.248c-0.286,0-0.562-0.039-0.833-0.084V132.698z"/>
		</g>
		<g>
			<g>
				<path fill="#C3996C" d="M22.813,153.474c4.034,0.358,7.377-0.878,7.422-1.118c0.044-0.24,0.47,4.393-7.285,4.432"/>
				<path fill="#C3996C" d="M22.813,156.297c4.147,0.351,7.583-0.854,7.63-1.088c0.046-0.232,0.482,4.275-7.489,4.313"/>
				<path fill="#C3996C" d="M22.906,158.854c4.046,0.333,7.4-0.814,7.445-1.037s0.471,4.068-7.309,4.105"/>
			</g>
			<path fill="#764E2A" d="M25.604,132.151c-0.273-0.044-0.548-0.084-0.833-0.084c-2.899,0-5.25,2.352-5.25,5.25v20
				c0,2.899,2.351,5.248,5.25,5.248c0.285,0,0.561-0.039,0.833-0.084V132.151z"/>
		</g>
		<path fill="#8B5F3D" d="M65.188,136.233c0,6.627-5.952,12-13.296,12H27.15c-7.344,0-13.295-5.373-13.295-12V87.9
			c0-6.627,5.951-12,13.295-12h24.744c7.343,0,13.295,5.373,13.295,12L65.188,136.233L65.188,136.233z"/>
		<g>
			<path fill="#D2D3D4" d="M69.776,113.772c0,5.615-2.535,5.525-9.791,5.525H33.769c-5.558,0-6.859-2.121-7.082-6.217l-0.103-27.203
				c0-5.613,5.881-10.166,13.136-10.166h16.922c7.254,0,13.135,4.552,13.135,10.166V113.772z"/>
			<g>
				<path fill="#A8AAAD" d="M56.696,92.973c2.17-2.166,5.484-2.365,7.402-0.444l5.678,5.687v12.895
					c-1.49,0.215-2.985-0.175-4.051-1.242l-9.481-9.494C54.325,98.454,54.526,95.139,56.696,92.973z"/>
				<g>
					<ellipse fill="#C3996C" cx="60.881" cy="97.24" rx="4.72" ry="4.833"/>
					<ellipse fill="#595A5C" cx="60.881" cy="97.24" rx="3.552" ry="3.783"/>
				</g>
			</g>
			<g>
				<path fill="#A8AAAD" d="M39.664,92.973c-2.169-2.166-5.483-2.365-7.401-0.444l-5.679,5.687v12.895
					c1.491,0.215,2.985-0.175,4.052-1.242l9.481-9.494C42.036,98.454,41.833,95.139,39.664,92.973z"/>
				<g>
					<ellipse fill="#C3996C" cx="35.479" cy="97.24" rx="4.72" ry="4.833"/>
					<ellipse fill="#595A5C" cx="35.479" cy="97.24" rx="3.551" ry="3.783"/>
				</g>
			</g>
			<path fill="#595A5C" d="M51.39,107.381c0,1.136-0.844,2.058-1.882,2.058h-1.821c-1.039,0-1.881-0.922-1.881-2.058l0,0
				c0-1.137,0.844-2.057,1.881-2.057h1.821C50.546,105.325,51.39,106.245,51.39,107.381L51.39,107.381z"/>
			<path fill="#595A5C" d="M39.591,110.438c-0.044,0.188-0.074,0.383-0.074,0.591c0,1.044,0.608,1.892,1.358,1.892h14.61
				c0.75,0,1.357-0.848,1.357-1.892c0-0.208-0.029-0.403-0.074-0.591H39.591z"/>
		</g>
		<g>
			<path fill="#8B5F3D" d="M42.653,79.658c-0.323-3.126,0.944-5.699,1.185-5.731c0.24-0.031-4.388-0.415-4.496,5.587"/>
			<path fill="#8B5F3D" d="M39.829,79.625c-0.313-3.213,0.923-5.859,1.156-5.893c0.233-0.032-4.271-0.423-4.379,5.747"/>
			<path fill="#8B5F3D" d="M37.274,79.524c-0.295-3.135,0.881-5.718,1.104-5.75c0.223-0.032-4.065-0.412-4.173,5.608"/>
		</g>
	</g>
	<g>
		<g>
			<g>
				<path fill="#C3996C" d="M54.178,84.527c-4.034,0.359-7.377-0.878-7.422-1.118c-0.044-0.24-0.47,4.392,7.285,4.433"/>
				<path fill="#C3996C" d="M54.178,87.351c-4.147,0.35-7.583-0.855-7.63-1.088c-0.046-0.233-0.482,4.273,7.489,4.313"/>
				<path fill="#C3996C" d="M54.085,89.907c-4.046,0.333-7.4-0.813-7.445-1.037c-0.045-0.223-0.471,4.07,7.309,4.106"/>
			</g>
			<path fill="#764E2A" d="M51.386,63.204c0.273-0.044,0.549-0.084,0.833-0.084c2.899,0,5.25,2.351,5.25,5.25v20
				c0,2.899-2.351,5.25-5.25,5.25c-0.286,0-0.562-0.04-0.833-0.084V63.204z"/>
		</g>
		<g>
			<g>
				<path fill="#C3996C" d="M22.787,83.98c4.034,0.359,7.377-0.877,7.422-1.118c0.044-0.24,0.47,4.392-7.285,4.432"/>
				<path fill="#C3996C" d="M22.787,86.804c4.147,0.35,7.583-0.854,7.63-1.088c0.046-0.232,0.482,4.274-7.489,4.313"/>
				<path fill="#C3996C" d="M22.88,89.361c4.046,0.332,7.4-0.814,7.445-1.037s0.471,4.07-7.309,4.106"/>
			</g>
			<path fill="#764E2A" d="M25.578,62.658c-0.273-0.044-0.548-0.084-0.833-0.084c-2.899,0-5.25,2.351-5.25,5.25v20
				c0,2.898,2.351,5.25,5.25,5.25c0.285,0,0.561-0.04,0.833-0.084V62.658z"/>
		</g>
		<path fill="#8B5F3D" d="M65.162,66.739c0,6.627-5.952,12-13.296,12H27.124c-7.344,0-13.295-5.373-13.295-12V18.406
			c0-6.627,5.951-12,13.295-12h24.744c7.343,0,13.295,5.373,13.295,12L65.162,66.739L65.162,66.739z"/>
		<g>
			<path fill="#8B5F3D" d="M42.627,10.165c-0.323-3.126,0.944-5.699,1.185-5.731c0.24-0.031-4.388-0.415-4.496,5.587"/>
			<path fill="#8B5F3D" d="M39.803,10.131c-0.313-3.213,0.923-5.859,1.156-5.893c0.233-0.032-4.271-0.423-4.379,5.747"/>
			<path fill="#8B5F3D" d="M37.248,10.03c-0.295-3.135,0.881-5.718,1.104-5.75c0.223-0.032-4.065-0.412-4.173,5.608"/>
		</g>
	</g>
	<g>
		<g>
			<g>
				<g>
					<path fill="#B0A098" d="M55.951,45.703c0-4.124,3.684-7.468,8.228-7.468s8.228,3.344,8.228,7.468l0.189,102.557H57.221
						l-0.189-98.867C56.348,48.303,55.951,47.046,55.951,45.703z"/>
					<polygon fill="#BCBCBC" points="48.934,148.259 65.306,148.259 65.116,50.528 48.934,50.528 					"/>
				</g>
				<g>
					<path fill="#B0A098" d="M21.93,45.203c0-4.124-3.684-7.468-8.228-7.468s-8.228,3.344-8.228,7.468L5.285,147.759H20.66
						l0.189-98.867C21.533,47.803,21.93,46.546,21.93,45.203z"/>
					<polygon fill="#BCBCBC" points="28.947,147.759 12.575,147.759 12.765,50.028 28.947,50.028 					"/>
				</g>
				<polygon fill="#B0A098" points="41.902,60.743 40.434,58.801 40.434,160.884 64.908,160.884 64.908,43.771 				"/>
			</g>
			<g>
				<polygon fill="#BCBCBC" points="17.726,40.181 13.804,40.181 13.682,166.739 47.719,166.739 47.841,109.94 31.002,100.709 
					31.173,93.918 47.397,86.401 47.841,64.479 				"/>
				<polygon fill="#B0A098" points="17.066,40.18 13.145,40.18 13.022,166.739 47.06,166.739 47.182,109.939 30.343,100.709 
					30.514,93.918 46.738,86.4 47.182,64.479 				"/>
			</g>
		</g>
		<g>
			<g>
				<polygon fill="#BCBCBC" points="68.919,44.379 65.459,39.224 38.896,59.608 42.419,61.557 62.63,54.474 62,46.562 				"/>
				<polygon fill="#B0A098" points="68.109,43.148 64.725,37.691 38.551,59.417 42.076,61.368 61.956,53.832 61.34,45.458 				"/>
			</g>
			<g>
				<polyline fill="#BCBCBC" points="12.677,37.857 47.182,64.479 15.506,53.107 16.136,45.195 9.217,43.012 				"/>
				<polyline fill="#B0A098" points="13.411,36.324 47.182,64.479 16.18,52.464 16.796,44.09 10.026,41.781 				"/>
			</g>
		</g>
	</g>
	<g>
		<polyline fill="#C3996C" points="31.434,93.954 27.198,95.312 31.251,97 		"/>
		<polyline fill="#C3996C" points="31.297,95.956 27.062,97.315 31.114,99.004 		"/>
		<polyline fill="#C3996C" points="31.297,97.479 27.062,98.838 31.114,100.528 		"/>
		<path fill="#8B5F3D" d="M30.436,93.274v7.932c2.231,0,4.041-1.775,4.041-3.966C34.477,95.05,32.667,93.274,30.436,93.274z"/>
	</g>
	<g>
		<path fill="#D2D3D4" d="M61.114,48.797c0,5.615-2.535,5.525-9.791,5.525H25.106c-5.558,0-6.859-2.121-7.082-6.216l-0.103-27.203
			c0-5.614,5.881-10.166,13.136-10.166h16.922c7.254,0,13.135,4.552,13.135,10.166V48.797z"/>
		<g>
			<path fill="#A8AAAD" d="M48.034,27.999c2.17-2.166,5.484-2.365,7.402-0.444l5.678,5.686v12.895
				c-1.49,0.214-2.985-0.175-4.051-1.242l-9.481-9.494C45.663,33.479,45.864,30.165,48.034,27.999z"/>
			<g>
				<ellipse fill="#C3996C" cx="52.219" cy="32.266" rx="4.72" ry="4.833"/>
				<ellipse fill="#595A5C" cx="52.219" cy="32.265" rx="3.552" ry="3.783"/>
			</g>
		</g>
		<g>
			<path fill="#A8AAAD" d="M31.002,27.999c-2.169-2.166-5.483-2.365-7.401-0.444l-5.679,5.686v12.895
				c1.491,0.214,2.985-0.175,4.052-1.242l9.481-9.494C33.374,33.479,33.171,30.165,31.002,27.999z"/>
			<g>
				<ellipse fill="#C3996C" cx="26.817" cy="32.266" rx="4.72" ry="4.833"/>
				<ellipse fill="#595A5C" cx="26.817" cy="32.265" rx="3.551" ry="3.783"/>
			</g>
		</g>
		<path fill="#595A5C" d="M42.728,42.406c0,1.136-0.844,2.058-1.882,2.058h-1.821c-1.039,0-1.881-0.922-1.881-2.058l0,0
			c0-1.136,0.844-2.057,1.881-2.057h1.821C41.884,40.35,42.728,41.271,42.728,42.406L42.728,42.406z"/>
		<path fill="#595A5C" d="M30.929,45.463c-0.044,0.187-0.074,0.383-0.074,0.591c0,1.044,0.608,1.891,1.358,1.891h14.61
			c0.75,0,1.357-0.847,1.357-1.891c0-0.208-0.029-0.404-0.074-0.591H30.929z"/>
	</g>
</g>
</svg>
