<?xml version="1.0" encoding="utf-8"?>
<!-- Generator: Adobe Illustrator 16.0.3, SVG Export Plug-In . SVG Version: 6.00 Build 0)  -->
<!DOCTYPE svg PUBLIC "-//W3C//DTD SVG 1.1//EN" "http://www.w3.org/Graphics/SVG/1.1/DTD/svg11.dtd">
<svg version="1.1" id="Layer_1" xmlns="http://www.w3.org/2000/svg" xmlns:xlink="http://www.w3.org/1999/xlink" x="0px" y="0px"
	 width="612px" height="792px" viewBox="0 0 612 792" enable-background="new 0 0 612 792" xml:space="preserve">
<g id="_x3C_Group_x3E_">
	<g>
		<path fill="#4E5AA8" d="M11.227,93.756c0.284,0,0.562-0.063,0.833-0.156V39.741h0.079c0.302-2.399,1.729-4.221,3.468-4.243
			l10.454-0.133v-7.358H10.665v0.04c-2.593,0.197-4.393,1.768-4.393,5.343L5.977,85.756C5.977,90.713,8.327,93.756,11.227,93.756z"
			/>
		<path fill="#E94444" d="M6.107,63.833l-0.13,23.139c0,3.772,1.363,6.432,3.292,7.489v0.133h0.267
			c0.531,0.244,1.099,0.378,1.691,0.378c0.284,0,0.562-0.063,0.833-0.156v-0.222h0.001v-0.465c5.115-0.846,4.785-4.102,4.746-3.907
			c-0.023,0.114-0.932,0.476-2.358,0.753c2.696-1.32,2.482-3.525,2.45-3.359c-0.029,0.146-1.404,0.678-3.452,0.965
			c3.525-1.257,3.278-4.006,3.244-3.819c-0.034,0.181-1.954,0.931-4.63,1.132V74.805H12.06V63.833H6.107z"/>
	</g>
	<g>
		<path fill="#4E5AA8" d="M71.253,85.149l-0.295-52.367c0-3.575-1.799-5.146-4.393-5.343v-0.04H51.169v7.358l10.455,0.133
			c1.738,0.022,3.166,1.844,3.468,4.243h0.079v53.86c0.271,0.094,0.549,0.156,0.832,0.156
			C68.903,93.149,71.253,90.105,71.253,85.149z"/>
		<path fill="#E94444" d="M71.123,63.225l0.13,23.139c0,3.772-1.363,6.432-3.291,7.49v0.133h-0.268
			c-0.531,0.244-1.099,0.377-1.691,0.377c-0.283,0-0.562-0.063-0.832-0.156v-0.221h-0.002v-0.465
			c-5.114-0.847-4.785-4.103-4.745-3.908c0.022,0.115,0.933,0.476,2.358,0.753c-2.696-1.319-2.482-3.524-2.451-3.359
			c0.029,0.146,1.404,0.679,3.453,0.965c-3.525-1.257-3.279-4.005-3.244-3.819c0.033,0.182,1.953,0.932,4.629,1.133V74.198h0.002
			V63.225H71.123z"/>
	</g>
	<g>
		<path fill="#4E5AA8" d="M27.076,90.293c0.284,0,0.562-0.063,0.833-0.156v-53.86h0.079c0.302-2.399,1.729-4.221,3.468-4.243
			l10.454-0.133v-7.358H26.514v0.04c-2.593,0.197-4.393,1.768-4.393,5.343l-0.295,52.368C21.826,87.249,24.177,90.293,27.076,90.293
			z"/>
		<path fill="#E94444" d="M21.957,60.37l-0.13,23.139c0,3.771,1.363,6.432,3.292,7.489v0.133h0.267
			c0.531,0.245,1.099,0.378,1.691,0.378c0.284,0,0.562-0.063,0.833-0.156V91.13h0.001v-0.464c5.115-0.848,4.785-4.104,4.746-3.908
			c-0.023,0.115-0.932,0.475-2.358,0.752c2.696-1.318,2.482-3.523,2.45-3.359c-0.029,0.146-1.404,0.679-3.452,0.965
			c3.525-1.256,3.278-4.005,3.244-3.818c-0.034,0.182-1.954,0.932-4.63,1.132V71.341h-0.001V60.37H21.957z"/>
	</g>
	<g>
		<path fill="#4E5AA8" d="M52.96,81.686l-0.295-52.368c0-3.575-1.801-5.146-4.394-5.343v-0.04H32.875v7.358l10.454,0.133
			c1.74,0.022,3.166,1.844,3.469,4.243h0.078v53.86c0.271,0.093,0.55,0.156,0.834,0.156C50.608,89.686,52.96,86.641,52.96,81.686z"
			/>
		<path fill="#E94444" d="M52.829,59.762l0.131,23.139c0,3.771-1.363,6.432-3.293,7.489v0.133H49.4
			c-0.531,0.245-1.099,0.378-1.69,0.378c-0.284,0-0.563-0.063-0.834-0.156v-0.222l0,0v-0.464c-5.115-0.848-4.785-4.104-4.746-3.908
			c0.023,0.115,0.932,0.475,2.357,0.752c-2.695-1.318-2.482-3.523-2.449-3.359c0.029,0.146,1.403,0.679,3.451,0.965
			c-3.524-1.256-3.277-4.005-3.244-3.818c0.035,0.182,1.954,0.932,4.631,1.132V70.734l0,0V59.762H52.829z"/>
	</g>
	<path fill="#331818" d="M64.259,65.047c0,6.628-5.952,12-13.295,12H26.221c-7.343,0-13.295-5.372-13.295-12V16.715
		c0-6.627,5.952-12,13.295-12h24.743c7.344,0,13.296,5.373,13.296,12L64.259,65.047L64.259,65.047z"/>
	<path fill="#4E5AA8" d="M64.259,65.047L64.259,65.047l0.001-37.041H12.926v37.041c0,6.628,5.952,12,13.295,12h24.743
		C58.307,77.047,64.259,71.675,64.259,65.047z"/>
	<polyline fill="#E94444" points="27.295,46.874 38.186,59.208 52.96,44.374 	"/>
	<path fill="#D2D3D4" d="M60.212,47.106c0,5.615-2.536,5.525-9.791,5.525H24.203c-5.557,0-6.859-2.121-7.082-6.216l-0.102-27.203
		c0-5.614,5.881-10.166,13.135-10.166h16.923c7.254,0,13.135,4.552,13.135,10.166V47.106z"/>
	<g>
		<path fill="#A8AAAD" d="M47.132,26.307c2.169-2.166,5.482-2.365,7.402-0.444l5.678,5.686v12.895
			c-1.491,0.214-2.986-0.175-4.053-1.242l-9.48-9.494C44.76,31.787,44.962,28.473,47.132,26.307z"/>
		<g>
			<ellipse fill="#C3996C" cx="51.315" cy="30.574" rx="4.719" ry="4.833"/>
			<ellipse fill="#595A5C" cx="51.315" cy="30.574" rx="3.551" ry="3.783"/>
		</g>
	</g>
	<g>
		<path fill="#A8AAAD" d="M30.099,26.307c-2.169-2.166-5.483-2.365-7.402-0.444l-5.678,5.686v12.895
			c1.491,0.214,2.986-0.175,4.052-1.242l9.481-9.494C32.471,31.787,32.268,28.473,30.099,26.307z"/>
		<g>
			<ellipse fill="#C3996C" cx="25.915" cy="30.574" rx="4.719" ry="4.833"/>
			<ellipse fill="#595A5C" cx="25.915" cy="30.574" rx="3.551" ry="3.783"/>
		</g>
	</g>
	<path fill="#595A5C" d="M41.823,40.715c0,1.136-0.843,2.058-1.881,2.058h-1.821c-1.039,0-1.881-0.922-1.881-2.058l0,0
		c0-1.136,0.843-2.057,1.881-2.057h1.821C40.98,38.658,41.823,39.579,41.823,40.715L41.823,40.715z"/>
	<path fill="#595A5C" d="M30.025,43.772c-0.044,0.187-0.074,0.383-0.074,0.591c0,1.044,0.608,1.891,1.358,1.891h14.609
		c0.75,0,1.358-0.847,1.358-1.891c0-0.208-0.03-0.404-0.073-0.591H30.025z"/>
	<g>
		<path fill="#331818" d="M41.497,8.339c-0.322,3.443,0.945,6.278,1.186,6.313s-4.388,0.458-4.497-6.154"/>
		<path fill="#331818" d="M38.673,8.375c-0.313,3.539,0.923,6.454,1.156,6.491c0.234,0.035-4.27,0.466-4.378-6.331"/>
		<path fill="#331818" d="M36.119,8.487C35.824,11.94,37,14.785,37.223,14.82c0.223,0.035-4.065,0.454-4.172-6.177"/>
	</g>
	<g>
		<path fill="#E94444" d="M12.948,62.569v2.479c0,6.628,5.952,12,13.295,12h24.742c7.344,0,13.296-5.372,13.296-12h0.001v-2.479
			H12.948z"/>
		<rect x="12.88" y="62.612" fill="#F6EB16" width="17.892" height="1.559"/>
		<rect x="46.368" y="62.612" fill="#F6EB16" width="17.892" height="1.559"/>
		<rect x="34.76" y="62.612" fill="#F6EB16" width="8.544" height="1.559"/>
	</g>
</g>
</svg>
